<?xml version="1.0" encoding="UTF-8" standalone="no"?>
<!-- Created with Inkscape (http://www.inkscape.org/) -->

<svg
   xmlns:dc="http://purl.org/dc/elements/1.1/"
   xmlns:cc="http://creativecommons.org/ns#"
   xmlns:rdf="http://www.w3.org/1999/02/22-rdf-syntax-ns#"
   xmlns:svg="http://www.w3.org/2000/svg"
   xmlns="http://www.w3.org/2000/svg"
   xmlns:sodipodi="http://sodipodi.sourceforge.net/DTD/sodipodi-0.dtd"
   xmlns:inkscape="http://www.inkscape.org/namespaces/inkscape"
   width="288.99554mm"
   height="288.99554mm"
   viewBox="0 0 1023.9999 1023.9999"
   id="svg2"
   version="1.1"
   inkscape:version="0.91 r13725"
   sodipodi:docname="level_c.svg">
  <defs
     id="defs4" />
  <sodipodi:namedview
     id="base"
     pagecolor="#ffffff"
     bordercolor="#666666"
     borderopacity="1.0"
     inkscape:pageopacity="0.0"
     inkscape:pageshadow="2"
     inkscape:zoom="0.35355339"
     inkscape:cx="499.00934"
     inkscape:cy="774.98768"
     inkscape:document-units="px"
     inkscape:current-layer="layer1"
     showgrid="false"
     inkscape:window-width="1323"
     inkscape:window-height="935"
     inkscape:window-x="386"
     inkscape:window-y="72"
     inkscape:window-maximized="0"
     fit-margin-top="0"
     fit-margin-left="0"
     fit-margin-right="0"
     fit-margin-bottom="0" />
  <metadata
     id="metadata7">
    <rdf:RDF>
      <cc:Work
         rdf:about="">
        <dc:format>image/svg+xml</dc:format>
        <dc:type
           rdf:resource="http://purl.org/dc/dcmitype/StillImage" />
        <dc:title></dc:title>
      </cc:Work>
    </rdf:RDF>
  </metadata>
  <g
     inkscape:label="Layer 1"
     inkscape:groupmode="layer"
     id="layer1"
     transform="translate(0,-28.361313)">
    <g
       id="g4810">
      <g
         transform="matrix(4.5110132,0,0,4.5110132,0,-3694.8544)"
         style="fill:#2c3e50;fill-opacity:1"
         id="g4214" />
      <path
         inkscape:connector-curvature="0"
         id="rect3347"
         d="m 0,28.361313 0,4.432206 0,1019.567781 1024,0 0,-1023.999987 -1024,0 z m 8.9035032,8.864321 1006.1929968,0 0,1006.271566 -124.64017,0 0,-89.42635 -4.52243,0 0,89.42635 -49.83488,0 0,-54.67215 -15.1925,0 0,-81.18606 39.63295,-39.45919 -5.14955,-19.13572 0,-40.49635 -0.90978,0 18.9288,-18.84557 -3.1975,-3.18347 -21.58745,21.49259 0.53879,0.53645 -4.79624,0 -28.52125,-28.39584 -3.19749,3.18338 29.84617,29.71494 8.37352,0 0,36.59158 4.62844,17.19192 -39.11184,38.94088 0,87.5529 15.19251,0 0,50.16971 -524.32625,0 0,-93.67347 -15.18365,0 0,-82.91062 -4.52242,0 0,0.53681 -30.25247,0 0,-24.42127 -4.52242,0 0,60.63523 -36.70928,0 -57.86394,-33.26782 0,-54.778 8.05555,13.89424 37.19509,-37.03123 -3.19748,-3.18342 -33.026,32.88064 -9.02716,-15.56525 -11.06755,-19.08303 -3.91295,2.25131 10.45809,18.03648 0,65.18112 61.17625,35.1674 42.4418,0 0,-12.33807 30.25247,0 0,58.49792 15.18366,0 0,89.17103 -171.80758,0 0,-49.18451 100.87103,0 25.42092,0 0,-4.50289 0,-44.84037 0.0442,0 0,-4.52906 -35.59635,0 0,4.52906 31.02977,0 0,44.84037 -20.8985,0 -100.87104,0 0,-44.84037 6.17415,0 0,-4.52906 -10.69656,0 0,0 0,4.51146 0,44.84083 0,4.50244 0,49.1845 -117.4944462,0 0,-140.44004 104.1391862,0 0.009,0 12.75462,-7.32544 0,16.52385 4.52241,0 0,-19.11768 6.77479,-3.88714 -2.26121,-3.90473 -9.03599,5.18811 -13.9294,8.00299 -7.25176,0 0,-24.88771 0,-76.78006 0,-28.14083 -1.49274,0 -53.032378,0 0,41.39338 -41.1963688,0 0,-282.1028 20.2713688,-0.4484 -0.105995,-4.50248 -20.1653751,0.44839 0,-486.308426 z m 45.7187818,736.022916 45.480295,0 0,5.04778 -45.480295,0 0,-5.04778 z m 0,9.55031 45.480295,0 0,8.24 -45.480295,0 0,-8.24 z m 853.296575,3.86057 0,111.03322 -6.32435,0 -10.58175,-6.07633 -9.72498,-5.58464 -2.26119,3.88714 7.46374,4.29133 0,36.63574 86.31454,0 0,-29.45105 41.62033,0 -2.4997,-114.73541 -2.2082,0 -101.79844,0 z m 4.52238,4.50253 46.04563,0 0,9.22494 -46.04563,0 0,-9.22494 z m 50.56801,0 44.49105,0 0.203,9.22494 -44.69418,0 0,-9.22494 z m -908.386965,4.37943 45.480295,0 0,1.34546 0,6.8857 -45.480295,0 0,-8.23116 z m 857.818955,9.34804 46.04563,0 0,7.38692 -46.04563,0 0,-7.38692 z m 50.56801,0 44.79135,0 0.1592,7.38692 -44.95032,0 0,-7.38692 z m -908.386965,3.38565 45.480295,0 0,8.23106 -45.480295,0 0,-8.23106 z m -45.7187818,6.36684 41.1963688,0 0,8.62714 -41.1963688,0 0,-8.62714 z m 903.5377368,2.13714 46.04563,0 0,7.38679 -46.04563,0 0,-7.38679 z m 50.56801,0 45.04745,0 0.1588,7.38679 -45.20647,0 0,-7.38679 z m -908.386965,4.22953 45.480295,0 0,8.23124 -45.480295,0 0,-8.23124 z m -45.7187818,6.76291 41.1963688,0 0,8.63543 -41.1963688,0 0,-8.63543 z m 903.5377368,0.89679 46.04563,0 0,7.38678 -46.04563,0 0,-7.38678 z m 50.56801,0 45.30365,0 0.1587,7.38678 -45.46257,0 0,-7.38678 z m -908.386965,5.07399 45.480295,0 0,8.23124 -45.480295,0 0,-8.23124 z m 857.818955,6.81523 46.04563,0 0,7.38679 -46.04563,0 0,-7.38679 z m 50.56801,0 45.55975,0 0.1588,7.38679 -45.71877,0 0,-7.38679 z m -954.1057468,0.35186 41.1963688,0 0,8.62732 -41.1963688,0 0,-8.62732 z m 45.7187818,5.56704 45.480295,0 0,8.2308 -45.480295,0 0,-8.2308 z m 857.818955,5.97078 46.04563,0 0,5.31127 4.52238,0 0,-5.31127 45.81595,0 0.9716,44.44521 -97.35556,0 0,-44.44521 z m -903.5377368,1.59194 41.1963688,0 0,3.71933 1.863725,0 0,1.45119 48.138983,0 0,14.45735 0,24.88771 -91.1990768,0 0,-44.51558 z m 248.3883068,17.91323 30.25247,0 0,8.62731 -30.25247,0 0,-8.62731 z m 0,13.12976 30.25247,0 0,6.24369 -30.25247,0 0,-6.24369 z m 633.72095,11.72232 9.37167,5.39111 12.59566,0 0,-0.80071 55.30236,0 0,24.94861 -77.26969,0 0,-29.53901 z m -743.69864,43.63593 0,4.52906 64.12641,0 0,-4.52906 -64.12641,0 z"
         style="color:#000000;font-style:normal;font-variant:normal;font-weight:normal;font-stretch:normal;font-size:medium;line-height:normal;font-family:sans-serif;text-indent:0;text-align:start;text-decoration:none;text-decoration-line:none;text-decoration-style:solid;text-decoration-color:#000000;letter-spacing:normal;word-spacing:normal;text-transform:none;direction:ltr;block-progression:tb;writing-mode:lr-tb;baseline-shift:baseline;text-anchor:start;white-space:normal;clip-rule:nonzero;display:inline;overflow:visible;visibility:visible;opacity:1;isolation:auto;mix-blend-mode:normal;color-interpolation:sRGB;color-interpolation-filters:linearRGB;solid-color:#000000;solid-opacity:1;fill:#2c3e50;fill-opacity:1;fill-rule:nonzero;stroke:none;stroke-width:1.96901131;stroke-linecap:butt;stroke-linejoin:miter;stroke-miterlimit:4;stroke-dasharray:none;stroke-dashoffset:0;stroke-opacity:1;color-rendering:auto;image-rendering:auto;shape-rendering:auto;text-rendering:auto;enable-background:accumulate" />
      <path
         inkscape:connector-curvature="0"
         id="path4158"
         d="m 309.16299,176.00019 -1.55947,0.88989 -7.85021,4.51981 -0.61675,0.35231 -0.58149,0.3699 -15.25992,9.78854 -0.58149,0.3699 -0.56388,0.40509 -14.7489,10.48454 -0.56387,0.40509 -0.54626,0.42268 -14.21146,11.163 -0.54625,0.43171 -0.51102,0.44929 -13.64757,11.81498 -0.52864,0.45814 -0.5022,0.48461 -13.05727,12.44932 -0.49339,0.45814 -0.47577,0.50221 -12.45815,13.0749 -0.47577,0.49337 -0.45815,0.53744 -11.81498,13.63878 -0.44934,0.51101 -0.43171,0.54628 -11.16299,14.21145 -0.42291,0.54624 -0.40527,0.56388 -10.48458,14.74889 -0.39647,0.55508 -0.37884,0.58151 -9.79735,15.2775 -0.36125,0.58151 -0.35244,0.59911 -9.06608,15.76211 -0.33481,0.59915 -0.32601,0.61675 -8.31718,16.23784 -0.31717,0.63439 -0.28194,0.62554 -7.53303,16.66079 -0.22028,0.48458 -0.19384,0.48457 -3.47136,8.49343 -0.14097,0.33471 -0.12334,0.33472 -3.26872,8.59032 -0.12333,0.31713 -0.11454,0.32614 -3.06607,8.72245 -0.11454,0.32615 -0.11453,0.33472 -2.86344,8.81055 -0.0969,0.33471 -0.10574,0.32615 -2.65198,8.90749 -0.0881,0.33472 -0.0881,0.32615 -2.43173,8.96915 -0.10573,0.36991 -0.0705,0.33471 -0.63436,2.34361 34.82819,8.49343 21.07489,5.70922 0.76652,-2.74007 0.009,-0.0618 2.22908,-8.21148 0.0266,-0.11458 2.2467,-7.53303 0.0529,-0.15879 2.67841,-8.27316 2.80176,-7.94714 3.01322,-7.94714 3.20705,-7.83256 6.96916,-15.41851 7.71806,-15.05727 8.23789,-14.35242 9.11894,-14.21145 9.62114,-13.53304 10.326,-13.1454 10.94273,-12.64316 11.54185,-12.09691 12,-11.44494 12.63436,-10.95156 13.13657,-10.32598 13.73568,-9.7709 13.99119,-8.96921 5.44493,-3.13655 -23.93832,-50.37886 -1.45375,-1.57709 z m -1.42731,6.01765 20.96035,44.1145 -1.92951,1.11016 -14.17621,9.0749 -13.91189,9.90307 -13.30397,10.45815 -12.80176,11.09249 -12.14978,11.58591 -11.69163,12.25552 -11.0837,12.81056 -10.46696,13.31281 -9.7445,13.70924 -9.22467,14.39645 -8.35242,14.53746 -7.81498,15.2511 -7.05727,15.59471 -3.25991,7.97358 -3.04846,8.04404 -2.837,8.05288 -2.69604,8.30838 -0.0705,0.20254 -2.28194,7.69164 -0.0442,0.16736 -1.80616,6.63439 -16.79295,-4.53744 -30.40529,-7.4185 2.04405,-7.54187 0.0881,-0.30856 0.0881,-0.29953 2.63436,-8.85462 0.0881,-0.30855 0.0969,-0.29096 2.84581,-8.75768 0.0969,-0.30856 0.0969,-0.29051 3.04846,-8.65199 0.10574,-0.29096 0.11453,-0.29953 3.26873,-8.59032 0.10574,-0.28194 0.10573,-0.26434 3.47137,-8.49343 0.1762,-0.41411 0.18504,-0.41411 7.53304,-16.6608 0.24671,-0.55508 0.2643,-0.5286 8.29956,-16.20265 0.27314,-0.52865 0.29958,-0.51101 9.04845,-15.74447 0.29958,-0.51101 0.32601,-0.51105 9.76212,-15.24226 0.32601,-0.49342 0.3436,-0.48457 10.48459,-14.7489 0.3348,-0.47577 0.37004,-0.45814 11.16299,-14.21145 0.36125,-0.45814 0.37883,-0.44073 11.8326,-13.65637 0.37004,-0.44072 0.39647,-0.41411 12.44934,-13.05727 0.40527,-0.42268 0.42291,-0.39652 13.07489,-12.46695 0.41411,-0.39652 0.4317,-0.3699 13.65639,-11.83261 0.44054,-0.37893 0.45815,-0.36133 14.21146,-11.163 0.45814,-0.3699 0.47578,-0.33472 14.74889,-10.48459 0.47578,-0.33471 0.49339,-0.31713 15.25991,-9.78854 0.49339,-0.31712 0.51102,-0.29953 5.73568,-3.29516 z"
         style="color:#000000;font-style:normal;font-variant:normal;font-weight:normal;font-stretch:normal;font-size:medium;line-height:normal;font-family:sans-serif;text-indent:0;text-align:start;text-decoration:none;text-decoration-line:none;text-decoration-style:solid;text-decoration-color:#000000;letter-spacing:normal;word-spacing:normal;text-transform:none;direction:ltr;block-progression:tb;writing-mode:lr-tb;baseline-shift:baseline;text-anchor:start;white-space:normal;clip-rule:nonzero;display:inline;overflow:visible;visibility:visible;opacity:1;isolation:auto;mix-blend-mode:normal;color-interpolation:sRGB;color-interpolation-filters:linearRGB;solid-color:#000000;solid-opacity:1;fill:#2c3e50;fill-opacity:1;fill-rule:nonzero;stroke:none;stroke-width:1;stroke-linecap:butt;stroke-linejoin:miter;stroke-miterlimit:4;stroke-dasharray:none;stroke-dashoffset:0;stroke-opacity:1;color-rendering:auto;image-rendering:auto;shape-rendering:auto;text-rendering:auto;enable-background:accumulate" />
      <path
         inkscape:connector-curvature="0"
         id="path4166"
         d="m 696.2379,176.00019 -1.2247,1.32159 -0.22915,0.25532 -23.93833,50.37886 5.44493,3.13656 13.99118,8.9692 13.73572,9.7709 13.13656,10.32598 12.63436,10.95157 11.99997,11.44493 11.54188,12.09692 10.94273,12.64315 10.32598,13.14541 9.62113,13.53304 9.11013,14.21145 8.24672,14.35242 7.71807,15.05726 6.96915,15.41851 3.20706,7.83256 3.01318,7.94715 2.80179,7.94714 2.67841,8.27315 0.0528,0.15879 2.24667,7.53303 0.0271,0.11458 2.22908,8.21149 0.009,0.0618 0.76651,2.74008 21.07487,-5.70923 34.82822,-8.49343 -0.63438,-2.3436 -0.0704,-0.33472 -0.10556,-0.3699 -2.43171,-8.96916 -0.088,-0.32615 -0.097,-0.33471 -2.65198,-8.9075 -0.097,-0.32614 -0.097,-0.33472 -2.86341,-8.81055 -0.11458,-0.33472 -0.11458,-0.32614 -3.06609,-8.72245 -0.12361,-0.32615 -0.11458,-0.31712 -3.26872,-8.59033 -0.12315,-0.33471 -0.14075,-0.33472 -3.47136,-8.49343 -0.19397,-0.48457 -0.22014,-0.48457 -7.53303,-16.6608 -0.28194,-0.62554 -0.31712,-0.63438 -8.31718,-16.23785 -0.32615,-0.61674 -0.33471,-0.59916 -9.06606,-15.76211 -0.35231,-0.5991 -0.3699,-0.58152 -9.78854,-15.27749 -0.37892,-0.58152 -0.39652,-0.55508 -10.48459,-14.74889 -0.40509,-0.56388 -0.42268,-0.54624 -11.163,-14.21145 -0.4317,-0.54628 -0.4493,-0.51101 -11.82377,-13.63878 -0.4493,-0.53744 -0.48457,-0.49337 -12.44936,-13.0749 -0.47578,-0.50221 -0.49337,-0.45814 -13.0661,-12.44931 -0.50221,-0.48462 -0.5286,-0.45814 -13.63878,-11.81497 -0.51101,-0.4493 -0.54628,-0.43171 -14.21145,-11.16299 -0.54624,-0.42269 -0.56388,-0.40508 -14.74889,-10.48455 -0.56388,-0.40509 -0.59031,-0.3699 -15.2599,-9.78854 -0.57272,-0.3699 -0.61674,-0.35231 -9.40966,-5.4097 z m 1.42728,6.01765 5.73571,3.29516 0.51101,0.29953 0.49337,0.31712 15.25995,9.78854 0.49336,0.31712 0.47578,0.33472 14.74889,10.48459 0.47578,0.33471 0.45814,0.36991 14.21145,11.163 0.45818,0.36133 0.44028,0.37892 13.64757,11.83262 0.44073,0.3699 0.41411,0.39652 13.07486,12.46695 0.42268,0.39652 0.40554,0.42268 12.44052,13.05726 0.40508,0.41411 0.36991,0.44073 11.83261,13.65637 0.37893,0.44073 0.36133,0.45814 11.163,14.21145 0.3699,0.45813 0.33472,0.47578 10.48458,14.74889 0.34374,0.48458 0.32615,0.49341 9.7621,15.24226 0.32615,0.51106 0.29953,0.511 9.04846,15.74448 0.29953,0.51101 0.27292,0.52864 8.29954,16.20266 0.26435,0.5286 0.24675,0.55508 7.53303,16.6608 0.18495,0.41411 0.17638,0.41411 3.47136,8.49342 0.10556,0.26435 0.10556,0.28194 3.26872,8.59032 0.10556,0.29953 0.11458,0.29096 3.04845,8.65199 0.097,0.29051 0.097,0.30855 2.84581,8.75768 0.097,0.29096 0.088,0.30856 2.63434,8.85462 0.088,0.29953 0.0794,0.30855 2.04407,7.54188 -30.39647,7.41849 -16.79297,4.53745 -1.80616,-6.63439 -0.0451,-0.16736 -2.29074,-7.69164 -0.0704,-0.20254 -2.68726,-8.30839 -2.83697,-8.05288 -3.0573,-8.04404 -3.25988,-7.97357 -7.04846,-15.59471 -7.81497,-15.25111 -8.35246,-14.53746 -9.23345,-14.39644 -9.74451,-13.70924 L 767.7518,304.42377 756.66811,291.61322 744.97647,279.3577 732.82668,267.77179 720.02492,256.6793 706.721,246.22115 l -13.91192,-9.90307 -14.17622,-9.0749 -1.9295,-1.11016 20.96034,-44.11451 z"
         style="color:#000000;font-style:normal;font-variant:normal;font-weight:normal;font-stretch:normal;font-size:medium;line-height:normal;font-family:sans-serif;text-indent:0;text-align:start;text-decoration:none;text-decoration-line:none;text-decoration-style:solid;text-decoration-color:#000000;letter-spacing:normal;word-spacing:normal;text-transform:none;direction:ltr;block-progression:tb;writing-mode:lr-tb;baseline-shift:baseline;text-anchor:start;white-space:normal;clip-rule:nonzero;display:inline;overflow:visible;visibility:visible;opacity:1;isolation:auto;mix-blend-mode:normal;color-interpolation:sRGB;color-interpolation-filters:linearRGB;solid-color:#000000;solid-opacity:1;fill:#2c3e50;fill-opacity:1;fill-rule:nonzero;stroke:none;stroke-width:1;stroke-linecap:butt;stroke-linejoin:miter;stroke-miterlimit:4;stroke-dasharray:none;stroke-dashoffset:0;stroke-opacity:1;color-rendering:auto;image-rendering:auto;shape-rendering:auto;text-rendering:auto;enable-background:accumulate" />
      <path
         inkscape:connector-curvature="0"
         id="path4168"
         d="m 503.25112,129.48921 c -50.05511,-0.50442 -100.1844,8.11405 -147.84143,26.28193 l -0.60793,0.21156 -0.65198,0.27337 -9.57709,3.94714 -0.1762,1.28636 -0.0881,0.696 25.35683,50.08813 5.85903,-2.40527 0.009,0 c 19.09122,-6.80121 42.41355,-14.29116 64.28194,-17.79739 44.26775,-6.72182 89.09225,-7.44291 132.89865,2.28194 19.98221,4.7606 37.97064,9.49857 56.43174,17.14536 l 0.11458,0.0528 7.83261,3.25114 0.0451,0.0271 2.66962,1.09248 8.38768,-20.15859 14.59909,-32.74887 -2.23787,-0.93392 -0.30856,-0.14074 -0.36133,-0.14977 -8.58148,-3.56826 -0.30855,-0.1236 -0.32615,-0.13217 -0.018,-0.009 C 603.28856,139.62288 553.30649,129.99431 503.25143,129.48993 Z m -0.0451,4.51101 c 49.50634,0.49928 98.95164,10.01828 145.81498,28.15856 l -0.0451,-0.009 0.30855,0.12315 0.29953,0.12315 7.20707,2.98678 -12.7401,28.59031 -6.67841,16.06169 -6.35241,-2.63439 -0.14075,-0.0618 -0.009,-0.009 C 612.04967,199.53387 593.7843,194.73361 573.725,189.95518 l -0.018,0 -0.0181,-0.009 C 529.20084,180.07 483.80096,180.82893 439.13384,187.61137 l -0.009,0 -0.009,0.009 c -22.4055,3.59036 -45.986,11.18497 -65.20705,18.03522 l -0.0442,0.018 -2.06167,0.84581 -22.06168,-43.56826 6.11454,-2.52865 0.55507,-0.22014 0.5815,-0.21157 0.0176,-0.009 c 47.11701,-17.962 96.6875,-26.48168 146.19384,-25.98235 z"
         style="color:#000000;font-style:normal;font-variant:normal;font-weight:normal;font-stretch:normal;font-size:medium;line-height:normal;font-family:sans-serif;text-indent:0;text-align:start;text-decoration:none;text-decoration-line:none;text-decoration-style:solid;text-decoration-color:#000000;letter-spacing:normal;word-spacing:normal;text-transform:none;direction:ltr;block-progression:tb;writing-mode:lr-tb;baseline-shift:baseline;text-anchor:start;white-space:normal;clip-rule:nonzero;display:inline;overflow:visible;visibility:visible;opacity:1;isolation:auto;mix-blend-mode:normal;color-interpolation:sRGB;color-interpolation-filters:linearRGB;solid-color:#000000;solid-opacity:1;fill:#2c3e50;fill-opacity:1;fill-rule:nonzero;stroke:none;stroke-width:1;stroke-linecap:butt;stroke-linejoin:miter;stroke-miterlimit:4;stroke-dasharray:none;stroke-dashoffset:0;stroke-opacity:1;color-rendering:auto;image-rendering:auto;shape-rendering:auto;text-rendering:auto;enable-background:accumulate" />
      <path
         inkscape:connector-curvature="0"
         id="path4178"
         d="m 106.44934,471.03985 -0.27314,1.94713 -1.26873,8.96037 -0.0969,0.70484 -0.0617,0.67841 -1.65638,18.05285 -0.0705,0.69605 -0.0266,0.68721 -0.80176,18.07933 -0.0352,0.70484 0,0.12315 -22.431719,0 0,4.51102 22.458149,0 0.0529,14.11455 0,0.70485 0.0442,0.67841 0.94273,18.02641 0.0266,0.67842 0.0705,0.70484 1.79736,17.96475 0.0617,0.66962 0.0969,0.67841 2.65198,17.85905 0.0969,0.69601 0.14977,0.68725 3.48898,17.67401 0.12334,0.68721 0.1762,0.68721 4.34361,17.52425 0.15861,0.68721 0.20263,0.66081 5.18943,17.33921 0.20263,0.64314 0.21144,0.65202 6.03524,17.12773 0.23786,0.64318 0.25551,0.64318 6.86343,16.84579 0.25551,0.62554 0.29073,0.63439 8.51102,18.29956 51.88546,-25.31279 -7.79735,-16.75769 -6.25551,-15.33041 -5.60353,-15.91188 -4.76652,-15.91192 -4.02643,-16.22905 -3.23348,-16.39649 -2.44934,-16.53747 -1.64757,-16.50218 -0.88106,-16.69603 -0.0705,-16.71367 0.74009,-16.83699 1.53304,-16.54626 0.87225,-6.22908 -54.36124,-12.07048 -2.21145,0 z m 3.85022,4.98679 47.67401,10.58148 -0.30838,2.21148 -1.55066,16.7577 -0.7489,17.05726 0.0705,16.93394 0.88987,16.90746 1.6652,16.71367 2.48458,16.74889 3.28634,16.60793 4.07049,16.44052 4.82819,16.12335 5.67401,16.11456 6.34361,15.53304 5.96476,12.84579 -43.76211,21.33921 -6.57269,-14.09691 -0.24671,-0.54624 -0.22907,-0.55508 -6.84581,-16.81056 -0.22027,-0.55508 -0.20264,-0.57268 -6.01762,-17.06606 -0.19384,-0.55508 -0.1674,-0.58152 -5.18943,-17.3392 -0.1674,-0.54624 -0.14097,-0.56388 -4.34361,-17.55948 -0.14097,-0.55503 -0.10574,-0.55508 -3.50661,-17.74453 -0.11453,-0.56387 -0.0793,-0.55504 -2.65198,-17.85905 -0.0793,-0.57268 -0.0617,-0.58151 -1.79735,-17.96475 -0.0529,-0.56388 -0.0266,-0.59031 -0.94273,-18.05285 -0.0352,-0.56387 0,-0.58152 -0.0705,-18.08808 -0.009,-0.59031 0.0266,-0.56388 0.80176,-18.07928 0.0266,-0.58152 0.0529,-0.57267 1.65639,-18.05289 0.0617,-0.59031 0.0793,-0.59911 0.92511,-6.54625 z"
         style="color:#000000;font-style:normal;font-variant:normal;font-weight:normal;font-stretch:normal;font-size:medium;line-height:normal;font-family:sans-serif;text-indent:0;text-align:start;text-decoration:none;text-decoration-line:none;text-decoration-style:solid;text-decoration-color:#000000;letter-spacing:normal;word-spacing:normal;text-transform:none;direction:ltr;block-progression:tb;writing-mode:lr-tb;baseline-shift:baseline;text-anchor:start;white-space:normal;clip-rule:nonzero;display:inline;overflow:visible;visibility:visible;opacity:1;isolation:auto;mix-blend-mode:normal;color-interpolation:sRGB;color-interpolation-filters:linearRGB;solid-color:#000000;solid-opacity:1;fill:#2c3e50;fill-opacity:1;fill-rule:nonzero;stroke:none;stroke-width:1;stroke-linecap:butt;stroke-linejoin:miter;stroke-miterlimit:4;stroke-dasharray:none;stroke-dashoffset:0;stroke-opacity:1;color-rendering:auto;image-rendering:auto;shape-rendering:auto;text-rendering:auto;enable-background:accumulate" />
      <path
         inkscape:connector-curvature="0"
         id="path4180"
         d="m 896.65198,471.03985 -54.37003,12.07048 0.87225,6.22908 1.53302,16.54626 0.74008,16.83699 -0.0704,16.71367 -0.88109,16.69603 -1.64756,16.50219 -2.44934,16.53746 -3.2335,16.3965 -4.02639,16.22904 -4.76652,15.91192 -5.60354,15.91188 -6.25551,15.33041 -7.78853,16.75769 51.87665,25.31279 8.51102,-18.29956 0.29096,-0.63438 0.25532,-0.62555 6.86342,-16.84579 0.25532,-0.64318 0.23773,-0.64318 6.03524,-17.12773 0.21157,-0.65202 0.20254,-0.64314 5.18943,-17.3392 0.20254,-0.66082 0.15879,-0.68721 4.34361,-17.52425 0.17638,-0.68721 0.12315,-0.68721 3.489,-17.67401 0.14976,-0.68725 0.097,-0.69601 2.65198,-17.85905 0.097,-0.67841 0.0618,-0.66962 1.79737,-17.96475 0.0704,-0.70484 0.0271,-0.67842 0.94272,-18.02641 0.0451,-0.67841 0,-0.70485 0.0704,-18.05289 0.009,-0.69601 -0.0361,-0.70484 -0.80174,-18.07933 -0.0271,-0.68721 -0.0704,-0.69605 -1.65635,-18.05285 -0.0618,-0.67841 -0.097,-0.70484 -1.54187,-10.9075 -1.95593,0 -0.24675,0 z m -1.64756,4.98679 0.92512,6.54625 0.0794,0.59911 0.0618,0.59031 1.6564,18.05289 0.0528,0.57267 0.0271,0.58152 0.80174,18.07928 0.0271,0.56388 -0.009,0.59031 -0.0704,18.08808 0,0.58152 -0.0361,0.56387 -0.94271,18.05285 -0.0271,0.59031 -0.0528,0.56388 -1.79737,17.96475 -0.0618,0.58151 -0.0794,0.57268 -2.65198,17.85905 -0.0794,0.55504 -0.11458,0.56387 -3.50659,17.74453 -0.10556,0.55508 -0.14074,0.55503 -4.34361,17.55948 -0.14074,0.56388 -0.16736,0.54624 -5.18943,17.3392 -0.16736,0.58152 -0.19397,0.55508 -6.0176,17.06606 -0.20255,0.57268 -0.22013,0.55508 -6.84583,16.81056 -0.22916,0.55508 -0.24675,0.54624 -6.57268,14.09691 -43.76211,-21.33921 5.96478,-12.84579 6.34361,-15.53304 5.674,-16.11456 4.82818,-16.12335 4.07931,-16.44052 3.27752,-16.60793 2.48458,-16.74889 1.6652,-16.71367 0.88988,-16.90746 0.0704,-16.93394 -0.74888,-17.05726 -1.55066,-16.7577 -0.30855,-2.21148 47.67401,-10.58148 z"
         style="color:#000000;font-style:normal;font-variant:normal;font-weight:normal;font-stretch:normal;font-size:medium;line-height:normal;font-family:sans-serif;text-indent:0;text-align:start;text-decoration:none;text-decoration-line:none;text-decoration-style:solid;text-decoration-color:#000000;letter-spacing:normal;word-spacing:normal;text-transform:none;direction:ltr;block-progression:tb;writing-mode:lr-tb;baseline-shift:baseline;text-anchor:start;white-space:normal;clip-rule:nonzero;display:inline;overflow:visible;visibility:visible;opacity:1;isolation:auto;mix-blend-mode:normal;color-interpolation:sRGB;color-interpolation-filters:linearRGB;solid-color:#000000;solid-opacity:1;fill:#2c3e50;fill-opacity:1;fill-rule:nonzero;stroke:none;stroke-width:1;stroke-linecap:butt;stroke-linejoin:miter;stroke-miterlimit:4;stroke-dasharray:none;stroke-dashoffset:0;stroke-opacity:1;color-rendering:auto;image-rendering:auto;shape-rendering:auto;text-rendering:auto;enable-background:accumulate" />
      <path
         inkscape:connector-curvature="0"
         id="path4198"
         d="m 403.28635,333.04868 -208.83701,55.95591 1.16299,4.36125 208.26432,-55.80615 198.86342,0 214.38766,57.40968 1.16303,-4.3524 -214.96038,-57.56829 -200.04403,0 z"
         style="color:#000000;font-style:normal;font-variant:normal;font-weight:normal;font-stretch:normal;font-size:medium;line-height:normal;font-family:sans-serif;text-indent:0;text-align:start;text-decoration:none;text-decoration-line:none;text-decoration-style:solid;text-decoration-color:#000000;letter-spacing:normal;word-spacing:normal;text-transform:none;direction:ltr;block-progression:tb;writing-mode:lr-tb;baseline-shift:baseline;text-anchor:start;white-space:normal;clip-rule:nonzero;display:inline;overflow:visible;visibility:visible;opacity:1;isolation:auto;mix-blend-mode:normal;color-interpolation:sRGB;color-interpolation-filters:linearRGB;solid-color:#000000;solid-opacity:1;fill:#2c3e50;fill-opacity:1;fill-rule:evenodd;stroke:none;stroke-width:1px;stroke-linecap:butt;stroke-linejoin:miter;stroke-miterlimit:4;stroke-dasharray:none;stroke-dashoffset:0;stroke-opacity:1;color-rendering:auto;image-rendering:auto;shape-rendering:auto;text-rendering:auto;enable-background:accumulate" />
      <path
         inkscape:connector-curvature="0"
         id="rect4210"
         d="m 603.04844,336.95174 -4.16736,15.23347 75.83257,20.73131 4.1674,-15.22467 -2.1762,-0.59911 -73.65641,-20.141 z m 3.15419,5.54187 67.13655,18.36122 -1.77973,6.51982 -67.13655,-18.36122 1.77973,-6.51982 z"
         style="color:#000000;font-style:normal;font-variant:normal;font-weight:normal;font-stretch:normal;font-size:medium;line-height:normal;font-family:sans-serif;text-indent:0;text-align:start;text-decoration:none;text-decoration-line:none;text-decoration-style:solid;text-decoration-color:#000000;letter-spacing:normal;word-spacing:normal;text-transform:none;direction:ltr;block-progression:tb;writing-mode:lr-tb;baseline-shift:baseline;text-anchor:start;white-space:normal;clip-rule:nonzero;display:inline;overflow:visible;visibility:visible;opacity:1;isolation:auto;mix-blend-mode:normal;color-interpolation:sRGB;color-interpolation-filters:linearRGB;solid-color:#000000;solid-opacity:1;fill:#2c3e50;fill-opacity:1;fill-rule:nonzero;stroke:none;stroke-width:1;stroke-linecap:butt;stroke-linejoin:miter;stroke-miterlimit:4;stroke-dasharray:none;stroke-dashoffset:0;stroke-opacity:1;color-rendering:auto;image-rendering:auto;shape-rendering:auto;text-rendering:auto;enable-background:accumulate" />
      <path
         inkscape:connector-curvature="0"
         id="rect4212"
         d="m 599.21584,351.45397 -4.15857,15.22467 75.83261,20.74006 4.16737,-15.23346 -2.1762,-0.59031 -73.66521,-20.14096 z m 3.17183,5.54183 67.11896,18.35242 -1.77978,6.52866 -67.12775,-18.36127 1.78857,-6.51981 z"
         style="color:#000000;font-style:normal;font-variant:normal;font-weight:normal;font-stretch:normal;font-size:medium;line-height:normal;font-family:sans-serif;text-indent:0;text-align:start;text-decoration:none;text-decoration-line:none;text-decoration-style:solid;text-decoration-color:#000000;letter-spacing:normal;word-spacing:normal;text-transform:none;direction:ltr;block-progression:tb;writing-mode:lr-tb;baseline-shift:baseline;text-anchor:start;white-space:normal;clip-rule:nonzero;display:inline;overflow:visible;visibility:visible;opacity:1;isolation:auto;mix-blend-mode:normal;color-interpolation:sRGB;color-interpolation-filters:linearRGB;solid-color:#000000;solid-opacity:1;fill:#2c3e50;fill-opacity:1;fill-rule:nonzero;stroke:none;stroke-width:1;stroke-linecap:butt;stroke-linejoin:miter;stroke-miterlimit:4;stroke-dasharray:none;stroke-dashoffset:0;stroke-opacity:1;color-rendering:auto;image-rendering:auto;shape-rendering:auto;text-rendering:auto;enable-background:accumulate" />
      <path
         inkscape:connector-curvature="0"
         id="rect4231"
         d="m 405.06608,336.95174 -75.84141,20.74011 0.59912,2.1762 3.56828,13.04847 75.8326,-20.73131 -4.15859,-15.23347 z m -3.17181,5.54187 1.78855,6.52861 -67.12775,18.36122 -1.78855,-6.5374 67.12775,-18.35243 z"
         style="color:#000000;font-style:normal;font-variant:normal;font-weight:normal;font-stretch:normal;font-size:medium;line-height:normal;font-family:sans-serif;text-indent:0;text-align:start;text-decoration:none;text-decoration-line:none;text-decoration-style:solid;text-decoration-color:#000000;letter-spacing:normal;word-spacing:normal;text-transform:none;direction:ltr;block-progression:tb;writing-mode:lr-tb;baseline-shift:baseline;text-anchor:start;white-space:normal;clip-rule:nonzero;display:inline;overflow:visible;visibility:visible;opacity:1;isolation:auto;mix-blend-mode:normal;color-interpolation:sRGB;color-interpolation-filters:linearRGB;solid-color:#000000;solid-opacity:1;fill:#2c3e50;fill-opacity:1;fill-rule:nonzero;stroke:none;stroke-width:1;stroke-linecap:butt;stroke-linejoin:miter;stroke-miterlimit:4;stroke-dasharray:none;stroke-dashoffset:0;stroke-opacity:1;color-rendering:auto;image-rendering:auto;shape-rendering:auto;text-rendering:auto;enable-background:accumulate" />
      <path
         inkscape:connector-curvature="0"
         id="rect4233"
         d="m 408.88987,351.45397 -75.8326,20.73127 0.59031,2.1762 3.56828,13.05726 75.84141,-20.74006 -4.1674,-15.22467 z m -3.163,5.54183 1.78855,6.52865 -67.13657,18.34359 -1.77973,-6.51102 67.12775,-18.36122 z"
         style="color:#000000;font-style:normal;font-variant:normal;font-weight:normal;font-stretch:normal;font-size:medium;line-height:normal;font-family:sans-serif;text-indent:0;text-align:start;text-decoration:none;text-decoration-line:none;text-decoration-style:solid;text-decoration-color:#000000;letter-spacing:normal;word-spacing:normal;text-transform:none;direction:ltr;block-progression:tb;writing-mode:lr-tb;baseline-shift:baseline;text-anchor:start;white-space:normal;clip-rule:nonzero;display:inline;overflow:visible;visibility:visible;opacity:1;isolation:auto;mix-blend-mode:normal;color-interpolation:sRGB;color-interpolation-filters:linearRGB;solid-color:#000000;solid-opacity:1;fill:#2c3e50;fill-opacity:1;fill-rule:nonzero;stroke:none;stroke-width:1;stroke-linecap:butt;stroke-linejoin:miter;stroke-miterlimit:4;stroke-dasharray:none;stroke-dashoffset:0;stroke-opacity:1;color-rendering:auto;image-rendering:auto;shape-rendering:auto;text-rendering:auto;enable-background:accumulate" />
      <path
         inkscape:connector-curvature="0"
         id="path4182"
         d="m 219.76212,719.40108 -3.65639,2.07931 -48.52864,27.50662 6.42291,9.54183 0.39647,0.57268 0.40527,0.54628 10.86344,14.51982 0.41411,0.56388 0.44055,0.5286 11.51542,13.96479 0.44934,0.53744 0.47577,0.51101 12.14097,13.348 0.46696,0.51985 0.49339,0.48457 12.77533,12.75778 0.47578,0.48448 0.51982,0.47591 13.36564,12.13192 0.5022,0.45832 0.52863,0.44208 1.87666,1.54186 0.0442,0.0451 2.92511,-3.43604 c -0.0171,0 -0.0356,-0.0451 -0.0529,-0.0451 -1.56551,-1.3727 -3.09912,-2.76931 -4.63436,-4.16727 12.05392,-11.73702 24.9949,-22.77773 38.98679,-32.78415 l 2.38766,-1.70927 -4.28194,-3.53302 -12.27312,-11.14536 -11.8326,-11.80618 -11.2423,-12.36126 -10.74008,-12.9956 -9.94714,-13.32156 -1.92071,-2.83702 0.23787,-3.41849 z m -3.2423,7.03087 1.25111,1.84139 10.07048,13.48897 10.88106,13.1718 11.38326,12.51982 11.99118,11.95599 12.43172,11.28633 0.0266,0.018 c -13.39223,9.74577 -25.98686,20.2835 -37.60352,31.62099 l -8.0793,-7.33027 -0.4317,-0.38749 -0.40527,-0.41411 -12.80176,-12.77533 -0.39647,-0.39651 -0.37884,-0.43171 -12.17621,-13.38327 -0.40527,-0.44073 -0.37004,-0.4317 -11.51542,-13.96475 -0.36124,-0.44072 -0.3436,-0.45819 -10.86344,-14.51982 -0.35245,-0.47578 -0.3436,-0.50216 -3.68282,-5.47137 42.47577,-24.07929 z"
         style="color:#000000;font-style:normal;font-variant:normal;font-weight:normal;font-stretch:normal;font-size:medium;line-height:normal;font-family:sans-serif;text-indent:0;text-align:start;text-decoration:none;text-decoration-line:none;text-decoration-style:solid;text-decoration-color:#000000;letter-spacing:normal;word-spacing:normal;text-transform:none;direction:ltr;block-progression:tb;writing-mode:lr-tb;baseline-shift:baseline;text-anchor:start;white-space:normal;clip-rule:nonzero;display:inline;overflow:visible;visibility:visible;opacity:1;isolation:auto;mix-blend-mode:normal;color-interpolation:sRGB;color-interpolation-filters:linearRGB;solid-color:#000000;solid-opacity:1;fill:#2c3e50;fill-opacity:1;fill-rule:nonzero;stroke:none;stroke-width:1;stroke-linecap:butt;stroke-linejoin:miter;stroke-miterlimit:4;stroke-dasharray:none;stroke-dashoffset:0;stroke-opacity:1;color-rendering:auto;image-rendering:auto;shape-rendering:auto;text-rendering:auto;enable-background:accumulate" />
      <path
         inkscape:connector-curvature="0"
         id="path4184"
         d="m 786.33479,719.99139 -0.60791,2.54624 -2.11453,3.11896 -9.95595,13.31277 -10.73129,13.0044 -11.2511,12.36125 -11.82377,11.80618 -14.2996,12.97796 2.31722,1.62112 c 14.77492,10.3397 28.56473,21.68765 41.23346,33.93848 l 1.51543,1.47104 8.61671,-7.81488 0.50221,-0.46689 0.47578,-0.48448 12.78416,-12.76658 0.48458,-0.47577 0.46693,-0.51985 12.14979,-13.3568 0.48457,-0.51985 0.4317,-0.52864 11.5066,-13.95595 0.4493,-0.5286 0.41411,-0.56388 10.86347,-14.51982 0.39652,-0.53744 0.40509,-0.57272 6.43171,-9.55063 -51.14537,-28.99562 z m 2.20264,6.44056 42.47579,24.07929 -3.674,5.46252 -0.35231,0.49342 -0.36133,0.48457 -10.86342,14.51982 -0.34374,0.46698 -0.36133,0.44073 -11.52424,13.97358 -0.36134,0.43171 -0.39652,0.4317 -12.16737,13.37448 -0.39652,0.44072 -0.40554,0.39652 -12.78412,12.76649 -0.41411,0.42268 -0.4317,0.39652 -5.5859,5.07511 c -11.75913,-11.228 -24.47622,-21.64975 -37.99121,-31.26894 l 10.36125,-9.40966 11.98238,-11.96479 11.39207,-12.51982 10.87226,-13.163 10.07927,-13.48897 1.25109,-1.84139 z"
         style="color:#000000;font-style:normal;font-variant:normal;font-weight:normal;font-stretch:normal;font-size:medium;line-height:normal;font-family:sans-serif;text-indent:0;text-align:start;text-decoration:none;text-decoration-line:none;text-decoration-style:solid;text-decoration-color:#000000;letter-spacing:normal;word-spacing:normal;text-transform:none;direction:ltr;block-progression:tb;writing-mode:lr-tb;baseline-shift:baseline;text-anchor:start;white-space:normal;clip-rule:nonzero;display:inline;overflow:visible;visibility:visible;opacity:1;isolation:auto;mix-blend-mode:normal;color-interpolation:sRGB;color-interpolation-filters:linearRGB;solid-color:#000000;solid-opacity:1;fill:#2c3e50;fill-opacity:1;fill-rule:nonzero;stroke:none;stroke-width:1;stroke-linecap:butt;stroke-linejoin:miter;stroke-miterlimit:4;stroke-dasharray:none;stroke-dashoffset:0;stroke-opacity:1;color-rendering:auto;image-rendering:auto;shape-rendering:auto;text-rendering:auto;enable-background:accumulate" />
      <path
         inkscape:connector-curvature="0"
         id="path4186"
         d="m 505.15418,716.78433 c -103.489,0.0902 -201.92171,38.88413 -270.07929,106.57269 l -1.91189,1.89418 1.91189,1.90319 c 68.10868,67.77482 166.54811,106.65344 270.07929,106.80185 l 0.009,0 c 103.49207,-0.0857 201.92842,-38.88223 270.08807,-106.57269 l 1.91191,-1.89417 -1.91191,-1.9032 C 707.14057,755.80942 608.69749,716.93054 505.1632,716.78433 l -0.009,0 z m 0,5.34804 0.009,0 c 101.16899,0.14525 197.25673,37.90284 264.18501,103.34798 C 702.37274,890.84403 606.29254,928.52002 505.1632,928.60798 403.99436,928.46363 307.90637,890.70464 240.97815,825.26022 307.95157,759.89834 404.02802,722.22277 505.15436,722.13237 Z"
         style="color:#000000;font-style:normal;font-variant:normal;font-weight:normal;font-stretch:normal;font-size:medium;line-height:normal;font-family:sans-serif;text-indent:0;text-align:start;text-decoration:none;text-decoration-line:none;text-decoration-style:solid;text-decoration-color:#000000;letter-spacing:normal;word-spacing:normal;text-transform:none;direction:ltr;block-progression:tb;writing-mode:lr-tb;baseline-shift:baseline;text-anchor:start;white-space:normal;clip-rule:nonzero;display:inline;overflow:visible;visibility:visible;opacity:1;isolation:auto;mix-blend-mode:normal;color-interpolation:sRGB;color-interpolation-filters:linearRGB;solid-color:#000000;solid-opacity:1;fill:#2c3e50;fill-opacity:1;fill-rule:nonzero;stroke:none;stroke-width:1.18709278;stroke-linecap:butt;stroke-linejoin:miter;stroke-miterlimit:4;stroke-dasharray:none;stroke-dashoffset:0;stroke-opacity:1;color-rendering:auto;image-rendering:auto;shape-rendering:auto;text-rendering:auto;enable-background:accumulate" />
      <path
         inkscape:connector-curvature="0"
         id="rect4237"
         d="m 392.47577,714.4055 -54.70485,14.96036 0.43171,1.56826 2.57269,9.4185 54.70484,-14.96033 -3.0044,-10.98679 z m -2.27313,4 1.28635,4.70485 -48.43172,13.24226 -1.28634,-4.70485 48.43171,-13.24226 z"
         style="color:#000000;font-style:normal;font-variant:normal;font-weight:normal;font-stretch:normal;font-size:medium;line-height:normal;font-family:sans-serif;text-indent:0;text-align:start;text-decoration:none;text-decoration-line:none;text-decoration-style:solid;text-decoration-color:#000000;letter-spacing:normal;word-spacing:normal;text-transform:none;direction:ltr;block-progression:tb;writing-mode:lr-tb;baseline-shift:baseline;text-anchor:start;white-space:normal;clip-rule:nonzero;display:inline;overflow:visible;visibility:visible;opacity:1;isolation:auto;mix-blend-mode:normal;color-interpolation:sRGB;color-interpolation-filters:linearRGB;solid-color:#000000;solid-opacity:1;fill:#2c3e50;fill-opacity:1;fill-rule:nonzero;stroke:none;stroke-width:0.721407;stroke-linecap:butt;stroke-linejoin:miter;stroke-miterlimit:4;stroke-dasharray:none;stroke-dashoffset:0;stroke-opacity:1;color-rendering:auto;image-rendering:auto;shape-rendering:auto;text-rendering:auto;enable-background:accumulate" />
      <path
         inkscape:connector-curvature="0"
         id="rect4239"
         d="m 395.24229,724.86365 -54.71366,14.96032 0.43171,1.5683 2.57269,9.4185 54.71365,-14.96032 -3.0044,-10.9868 z m -2.28194,4 1.28634,4.70486 -48.43171,13.24226 -1.28635,-4.70486 48.43172,-13.24226 z"
         style="color:#000000;font-style:normal;font-variant:normal;font-weight:normal;font-stretch:normal;font-size:medium;line-height:normal;font-family:sans-serif;text-indent:0;text-align:start;text-decoration:none;text-decoration-line:none;text-decoration-style:solid;text-decoration-color:#000000;letter-spacing:normal;word-spacing:normal;text-transform:none;direction:ltr;block-progression:tb;writing-mode:lr-tb;baseline-shift:baseline;text-anchor:start;white-space:normal;clip-rule:nonzero;display:inline;overflow:visible;visibility:visible;opacity:1;isolation:auto;mix-blend-mode:normal;color-interpolation:sRGB;color-interpolation-filters:linearRGB;solid-color:#000000;solid-opacity:1;fill:#2c3e50;fill-opacity:1;fill-rule:nonzero;stroke:none;stroke-width:0.721407;stroke-linecap:butt;stroke-linejoin:miter;stroke-miterlimit:4;stroke-dasharray:none;stroke-dashoffset:0;stroke-opacity:1;color-rendering:auto;image-rendering:auto;shape-rendering:auto;text-rendering:auto;enable-background:accumulate" />
      <path
         inkscape:connector-curvature="0"
         id="rect4243"
         d="m 622.64315,716.68744 -3.00438,10.9868 54.70484,14.96032 3.00442,-10.9868 -1.5683,-0.4317 -53.13658,-14.52862 z m 2.27315,4 48.43173,13.23347 -1.28636,4.71364 -48.43173,-13.24226 1.28636,-4.70485 z"
         style="color:#000000;font-style:normal;font-variant:normal;font-weight:normal;font-stretch:normal;font-size:medium;line-height:normal;font-family:sans-serif;text-indent:0;text-align:start;text-decoration:none;text-decoration-line:none;text-decoration-style:solid;text-decoration-color:#000000;letter-spacing:normal;word-spacing:normal;text-transform:none;direction:ltr;block-progression:tb;writing-mode:lr-tb;baseline-shift:baseline;text-anchor:start;white-space:normal;clip-rule:nonzero;display:inline;overflow:visible;visibility:visible;opacity:1;isolation:auto;mix-blend-mode:normal;color-interpolation:sRGB;color-interpolation-filters:linearRGB;solid-color:#000000;solid-opacity:1;fill:#2c3e50;fill-opacity:1;fill-rule:nonzero;stroke:none;stroke-width:0.721407;stroke-linecap:butt;stroke-linejoin:miter;stroke-miterlimit:4;stroke-dasharray:none;stroke-dashoffset:0;stroke-opacity:1;color-rendering:auto;image-rendering:auto;shape-rendering:auto;text-rendering:auto;enable-background:accumulate" />
      <path
         inkscape:connector-curvature="0"
         id="rect4245"
         d="m 619.87664,727.14559 -3.00438,10.98675 54.71363,14.96037 3.00442,-10.9868 -1.56829,-0.4317 -53.14538,-14.52862 z m 2.28194,4.00001 48.43173,13.23346 -1.28636,4.71365 -48.43168,-13.24226 1.28631,-4.70485 z"
         style="color:#000000;font-style:normal;font-variant:normal;font-weight:normal;font-stretch:normal;font-size:medium;line-height:normal;font-family:sans-serif;text-indent:0;text-align:start;text-decoration:none;text-decoration-line:none;text-decoration-style:solid;text-decoration-color:#000000;letter-spacing:normal;word-spacing:normal;text-transform:none;direction:ltr;block-progression:tb;writing-mode:lr-tb;baseline-shift:baseline;text-anchor:start;white-space:normal;clip-rule:nonzero;display:inline;overflow:visible;visibility:visible;opacity:1;isolation:auto;mix-blend-mode:normal;color-interpolation:sRGB;color-interpolation-filters:linearRGB;solid-color:#000000;solid-opacity:1;fill:#2c3e50;fill-opacity:1;fill-rule:nonzero;stroke:none;stroke-width:0.721407;stroke-linecap:butt;stroke-linejoin:miter;stroke-miterlimit:4;stroke-dasharray:none;stroke-dashoffset:0;stroke-opacity:1;color-rendering:auto;image-rendering:auto;shape-rendering:auto;text-rendering:auto;enable-background:accumulate" />
      <path
         style="color:#000000;font-style:normal;font-variant:normal;font-weight:normal;font-stretch:normal;font-size:medium;line-height:normal;font-family:sans-serif;text-indent:0;text-align:start;text-decoration:none;text-decoration-line:none;text-decoration-style:solid;text-decoration-color:#000000;letter-spacing:normal;word-spacing:normal;text-transform:none;direction:ltr;block-progression:tb;writing-mode:lr-tb;baseline-shift:baseline;text-anchor:start;white-space:normal;clip-rule:nonzero;display:inline;overflow:visible;visibility:visible;opacity:1;isolation:auto;mix-blend-mode:normal;color-interpolation:sRGB;color-interpolation-filters:linearRGB;solid-color:#000000;solid-opacity:1;fill:#2c3e50;fill-opacity:1;fill-rule:nonzero;stroke:none;stroke-width:1;stroke-linecap:butt;stroke-linejoin:miter;stroke-miterlimit:4;stroke-dasharray:none;stroke-dashoffset:0;stroke-opacity:1;color-rendering:auto;image-rendering:auto;shape-rendering:auto;text-rendering:auto;enable-background:accumulate"
         d="m 886.74268,63.519564 c 44.42125,0 84.74881,40.609626 84.7489,85.030836 -4e-5,21.19694 -5.14413,41.56669 -18.55506,55.94712 -0.13172,-0.14119 -0.27292,-0.27291 -0.40509,-0.41411 L 951.016,205.76625 919.06887,176.894 c -45.80208,46.34002 -108.63165,4.46067 -112.25354,-28.74359 -0.22059,-1.35308 -0.40644,-2.73791 -0.55707,-4.15509 5e-5,-44.421258 36.06334,-80.475801 80.4846,-80.475756 z m -0.30855,4.528606 c -8.05703,0.03158 -15.80109,1.347936 -23.07487,3.700474 l 12.44931,39.365626 c 2.75244,-0.56397 5.59172,-0.88989 8.51102,-0.88989 0.45236,0 0.89025,0.0564 1.33923,0.0704 z m 4.51101,0.220137 -0.78415,42.405283 c 8.58193,1.18793 16.33569,4.93221 22.4846,10.45815 l 28.4317,-29.991197 c -5.83847,-5.598889 -12.42545,-10.367662 -19.533,-14.11451 l -17.66522,37.735667 -4.0881,-1.91191 17.72688,-37.876628 c -8.36919,-3.838241 -17.35197,-6.141339 -26.57271,-6.704855 z m -31.8326,5.004428 c -9.17323,3.587428 -17.46542,8.889222 -24.4934,15.541839 l 26.87229,28.123326 c 3.06618,-1.9719 6.40857,-3.54503 9.9471,-4.67842 z m -27.64759,18.766492 c -5.57498,5.941185 -10.23734,12.737653 -13.68281,20.237893 l 30.88105,17.49781 c 2.48281,-3.86643 5.57308,-7.29381 9.1366,-10.16741 z m 112.78417,2.317172 -28.4141,29.964771 c 2.61747,2.90572 4.83043,6.16348 6.57268,9.70927 l 36.54624,-18.52867 c -3.79083,-7.70936 -8.7759,-14.85179 -14.70482,-21.145371 z m -59.92953,20.378861 c -17.27623,0 -31.81681,11.49718 -36.42291,27.26872 -0.31262,1.5004 -1.26656,3.73024 -1.88547,5.40969 l -35.03961,0 c 17.39577,49.02267 73.19628,57.95132 105.34321,27.46959 4.05359,-6.28312 5.95192,-14.09899 5.95192,-22.20086 0,-20.98681 -16.96028,-37.94714 -37.94714,-37.94714 z m -68.26431,1.7533 c -3.08864,7.95341 -4.95616,16.52059 -5.18942,25.51542 l 32.42291,0 c 0.75541,-2.90334 1.83611,-5.67075 3.15419,-8.29955 z m 144.81056,3.10132 -36.68721,18.59034 c 0.97767,2.68076 1.68482,5.48683 2.10574,8.38764 l 40.53741,-0.77531 c -0.36133,-9.05378 -2.42945,-17.90074 -5.95594,-26.20267 z m 6.06168,30.71368 -40.22908,0.76652 c 0.0226,0.53956 0.0794,1.06784 0.0794,1.61232 0,3.11102 -0.43666,6.10223 -1.07488,9.02203 l 37.18062,16.24668 c 2.70039,-8.64287 3.91155,-18.04211 4.04404,-27.64755 z m -42.40529,15.81498 c -0.87243,2.5965 -2.01295,5.05577 -3.34802,7.40086 l 0.39651,-0.44027 29.49783,26.65197 c 4.44813,-5.17783 7.83663,-11.08645 10.29955,-17.52425 z"
         id="path4378"
         inkscape:connector-curvature="0"
         sodipodi:nodetypes="csccccccscccsccccccccccccccccccccccscccscccccsccccccccccccsccccccccccc" />
      <path
         sodipodi:nodetypes="csccccccscccsccccccccccccccccccccccscccscccccsccccccccccccsccccccccccc"
         inkscape:connector-curvature="0"
         id="path4438"
         d="m 123.18443,63.519564 c -44.421255,0 -84.748811,40.609626 -84.748901,85.030836 4.5e-5,21.19694 5.144134,41.56669 18.55506,55.94712 0.131722,-0.14119 0.272916,-0.27291 0.405089,-0.41411 l 1.51543,1.68284 31.947131,-28.87225 c 45.802081,46.34002 108.631651,4.46067 112.253541,-28.74359 0.22059,-1.35308 0.40644,-2.73791 0.55707,-4.15509 -5e-5,-44.421258 -36.06334,-80.475801 -80.4846,-80.475756 z m 0.30855,4.528606 c 8.05703,0.03158 15.80109,1.347936 23.07487,3.700474 l -12.44931,39.365626 c -2.75244,-0.56397 -5.59172,-0.88989 -8.51102,-0.88989 -0.45236,0 -0.89025,0.0564 -1.33923,0.0704 z m -4.51101,0.220137 0.78415,42.405283 c -8.58193,1.18793 -16.33569,4.93221 -22.484604,10.45815 L 68.849817,91.140543 C 74.688286,85.541654 81.275268,80.772881 88.38282,77.026033 l 17.66522,37.735667 4.0881,-1.91191 -17.726879,-37.876628 c 8.369189,-3.838241 17.351969,-6.141339 26.572709,-6.704855 z m 31.8326,5.004428 c 9.17323,3.587428 17.46542,8.889222 24.4934,15.541839 L 148.43568,116.9379 c -3.06618,-1.9719 -6.40857,-3.54503 -9.9471,-4.67842 z m 27.64759,18.766492 c 5.57498,5.941185 10.23734,12.737653 13.68281,20.237893 l -30.88105,17.49781 c -2.48281,-3.86643 -5.57308,-7.29381 -9.1366,-10.16741 z M 65.677989,94.356399 94.092094,124.32117 c -2.61747,2.90572 -4.830438,6.16348 -6.572682,9.70927 L 50.973168,115.50177 c 3.79083,-7.70936 8.775906,-14.85179 14.704821,-21.145371 z m 59.929531,20.378861 c 17.27623,0 31.81681,11.49718 36.42291,27.26872 0.31262,1.5004 1.26656,3.73024 1.88547,5.40969 l 35.03961,0 c -17.39577,49.02267 -73.19628,57.95132 -105.343207,27.46959 -4.053597,-6.28312 -5.951921,-14.09899 -5.951921,-22.20086 0,-20.98681 16.960278,-37.94714 37.947138,-37.94714 z m 68.26431,1.7533 c 3.08864,7.95341 4.95616,16.52059 5.18942,25.51542 l -32.42291,0 c -0.75541,-2.90334 -1.83611,-5.67075 -3.15419,-8.29955 z m -144.810565,3.10132 36.687214,18.59034 c -0.977672,2.68076 -1.684818,5.48683 -2.105741,8.38764 L 43.10533,145.79255 c 0.361332,-9.05378 2.429451,-17.90074 5.955935,-26.20267 z m -6.061674,30.71368 40.229081,0.76652 c -0.02255,0.53956 -0.07939,1.06784 -0.07939,1.61232 0,3.11102 0.436666,6.10223 1.074884,9.02203 L 47.043534,177.95111 C 44.343152,169.30824 43.13199,159.909 42.999501,150.30356 Z m 42.405284,15.81498 c 0.87243,2.5965 2.012949,5.05577 3.348029,7.40086 l -0.396518,-0.44027 -29.497831,26.65197 c -4.44813,-5.17783 -7.836623,-11.08645 -10.299546,-17.52425 z"
         style="color:#000000;font-style:normal;font-variant:normal;font-weight:normal;font-stretch:normal;font-size:medium;line-height:normal;font-family:sans-serif;text-indent:0;text-align:start;text-decoration:none;text-decoration-line:none;text-decoration-style:solid;text-decoration-color:#000000;letter-spacing:normal;word-spacing:normal;text-transform:none;direction:ltr;block-progression:tb;writing-mode:lr-tb;baseline-shift:baseline;text-anchor:start;white-space:normal;clip-rule:nonzero;display:inline;overflow:visible;visibility:visible;opacity:1;isolation:auto;mix-blend-mode:normal;color-interpolation:sRGB;color-interpolation-filters:linearRGB;solid-color:#000000;solid-opacity:1;fill:#2c3e50;fill-opacity:1;fill-rule:nonzero;stroke:none;stroke-width:1;stroke-linecap:butt;stroke-linejoin:miter;stroke-miterlimit:4;stroke-dasharray:none;stroke-dashoffset:0;stroke-opacity:1;color-rendering:auto;image-rendering:auto;shape-rendering:auto;text-rendering:auto;enable-background:accumulate" />
      <text
         sodipodi:linespacing="125%"
         id="text4713"
         y="993.03546"
         x="25.747667"
         style="font-style:normal;font-weight:normal;font-size:180.44052124px;line-height:125%;font-family:Sans;letter-spacing:0px;word-spacing:0px;fill:#2c3e50;fill-opacity:1;stroke:none;stroke-width:1px;stroke-linecap:butt;stroke-linejoin:miter;stroke-opacity:1"
         xml:space="preserve"><tspan
           style="font-size:45.11013031px;fill:#2c3e50;fill-opacity:1"
           id="tspan4717"
           y="993.03546"
           x="25.747667"
           sodipodi:role="line">C03</tspan></text>
      <text
         sodipodi:linespacing="125%"
         id="text4721"
         y="100.5415"
         x="473.26102"
         style="font-style:normal;font-weight:normal;font-size:180.44052124px;line-height:125%;font-family:Sans;letter-spacing:0px;word-spacing:0px;fill:#2c3e50;fill-opacity:1;stroke:none;stroke-width:1px;stroke-linecap:butt;stroke-linejoin:miter;stroke-opacity:1"
         xml:space="preserve"><tspan
           style="font-size:39.47136688px;fill:#2c3e50;fill-opacity:1"
           y="100.5415"
           x="473.26102"
           id="tspan4723"
           sodipodi:role="line">C02</tspan></text>
      <text
         sodipodi:linespacing="125%"
         id="text4725"
         y="508.78821"
         x="474.08011"
         style="font-style:normal;font-weight:normal;font-size:180.44052124px;line-height:125%;font-family:Sans;letter-spacing:0px;word-spacing:0px;fill:#2c3e50;fill-opacity:1;stroke:none;stroke-width:1px;stroke-linecap:butt;stroke-linejoin:miter;stroke-opacity:1"
         xml:space="preserve"><tspan
           style="font-size:39.47136688px;fill:#2c3e50;fill-opacity:1"
           y="508.78821"
           x="474.08011"
           id="tspan4727"
           sodipodi:role="line">C01</tspan></text>
      <text
         sodipodi:linespacing="125%"
         id="text4729"
         y="993.12079"
         x="915.73566"
         style="font-style:normal;font-weight:normal;font-size:180.44052124px;line-height:125%;font-family:Sans;letter-spacing:0px;word-spacing:0px;fill:#2c3e50;fill-opacity:1;stroke:none;stroke-width:1px;stroke-linecap:butt;stroke-linejoin:miter;stroke-opacity:1"
         xml:space="preserve"><tspan
           style="font-size:39.47136688px;fill:#2c3e50;fill-opacity:1"
           y="993.12079"
           x="915.73566"
           id="tspan4731"
           sodipodi:role="line">C04</tspan></text>
      <text
         xml:space="preserve"
         style="font-style:normal;font-weight:normal;font-size:180.44052124px;line-height:125%;font-family:Sans;letter-spacing:0px;word-spacing:0px;fill:#2c3e50;fill-opacity:1;stroke:none;stroke-width:1px;stroke-linecap:butt;stroke-linejoin:miter;stroke-opacity:1"
         x="158.35864"
         y="980.56409"
         id="text4733"
         sodipodi:linespacing="125%"><tspan
           sodipodi:role="line"
           x="158.35864"
           y="980.56409"
           id="tspan4735"
           style="font-size:33.83259964px;fill:#2c3e50;fill-opacity:1">WC</tspan></text>
    </g>
  </g>
</svg>
