<?xml version="1.0" encoding="UTF-8" standalone="no"?>
<!-- Created with Inkscape (http://www.inkscape.org/) -->

<svg
   xmlns:dc="http://purl.org/dc/elements/1.1/"
   xmlns:cc="http://creativecommons.org/ns#"
   xmlns:rdf="http://www.w3.org/1999/02/22-rdf-syntax-ns#"
   xmlns:svg="http://www.w3.org/2000/svg"
   xmlns="http://www.w3.org/2000/svg"
   xmlns:sodipodi="http://sodipodi.sourceforge.net/DTD/sodipodi-0.dtd"
   xmlns:inkscape="http://www.inkscape.org/namespaces/inkscape"
   width="809"
   height="1023.9997"
   viewBox="0 0 809.00001 1023.9999"
   id="svg2"
   version="1.1"
   inkscape:version="0.91 r13725"
   sodipodi:docname="level_a.svg">
  <defs
     id="defs4" />
  <sodipodi:namedview
     id="base"
     pagecolor="#ffffff"
     bordercolor="#666666"
     borderopacity="1.0"
     inkscape:pageopacity="0.0"
     inkscape:pageshadow="2"
     inkscape:zoom="0.43557035"
     inkscape:cx="575.23016"
     inkscape:cy="525.73826"
     inkscape:document-units="px"
     inkscape:current-layer="layer1"
     showgrid="false"
     inkscape:window-width="1373"
     inkscape:window-height="1002"
     inkscape:window-x="0"
     inkscape:window-y="0"
     inkscape:window-maximized="0"
     showguides="false"
     inkscape:object-paths="true"
     inkscape:snap-bbox="false"
     inkscape:snap-bbox-edge-midpoints="true"
     inkscape:bbox-nodes="true"
     inkscape:snap-bbox-midpoints="true"
     inkscape:snap-intersection-paths="true"
     inkscape:object-nodes="true"
     inkscape:bbox-paths="true"
     inkscape:snap-smooth-nodes="true"
     inkscape:snap-midpoints="true"
     inkscape:snap-others="false"
     inkscape:snap-nodes="false"
     fit-margin-top="0"
     fit-margin-left="0"
     fit-margin-right="0"
     fit-margin-bottom="0"
     units="px" />
  <metadata
     id="metadata7">
    <rdf:RDF>
      <cc:Work
         rdf:about="">
        <dc:format>image/svg+xml</dc:format>
        <dc:type
           rdf:resource="http://purl.org/dc/dcmitype/StillImage" />
        <dc:title></dc:title>
      </cc:Work>
    </rdf:RDF>
  </metadata>
  <g
     inkscape:label="Layer 1"
     inkscape:groupmode="layer"
     id="layer1"
     transform="translate(0.14053344,-28.503922)">
    <path
       style="opacity:1;fill:#fdfdf7;fill-opacity:1;stroke:#ffffff;stroke-width:4.13224983;stroke-miterlimit:4;stroke-dasharray:none;stroke-opacity:1"
       d=""
       id="path4286"
       inkscape:connector-curvature="0" />
    <path
       style="opacity:1;fill:#fdfdf7;fill-opacity:1;stroke:#ffffff;stroke-width:4.13224983;stroke-miterlimit:4;stroke-dasharray:none;stroke-opacity:1"
       d=""
       id="path4288"
       inkscape:connector-curvature="0" />
    <path
       style="opacity:1;fill:#fdfdf7;fill-opacity:1;stroke:none;stroke-width:1.16564417;stroke-miterlimit:4;stroke-dasharray:none;stroke-opacity:1"
       d=""
       id="path4290"
       inkscape:connector-curvature="0" />
    <path
       style="opacity:1;fill:#000000;fill-opacity:1;stroke:#000000;stroke-width:6.73556709;stroke-miterlimit:4;stroke-dasharray:none;stroke-opacity:1"
       d=""
       id="path4297"
       inkscape:connector-curvature="0" />
    <g
       style="stroke:#fdfdfd;stroke-opacity:1"
       transform="matrix(3.544542,0,0,3.5455287,384.36901,-2794.7495)"
       id="g4456" />
    <g
       id="g6261"
       style="fill:#2c3e50;fill-opacity:1"
       transform="matrix(3.544542,0,0,3.5455287,0.35782623,-2679.1789)">
      <path
         id="path5160"
         d="m 155.77148,763.68945 0,91.39844 -155.912105,0 0,197.41601 182.361325,0 0,-17.9219 13.8418,0 0.49805,-90.24606 -25.375,0 0,31.54101 -15.06055,0 0,-0.76562 -23.125,0 0,20 -2.5,0 0,1 24.19727,0 0,42.24997 -23.19727,0 0,1 23.19727,0 0,1.6739 5.66015,0 0,-6.4532 20.86328,0 0,8.6446 -31.02148,0 0,8.2773 -149.339845,0 0,-15.6426 18.015625,0 0,3.375 5.25,0 0,-0.4375 23.4375,0 0,-1 -23.4375,0 0,-25.6875 -0.375,0 0,-15.74997 22.25,0 1.875,0 0,-1 -1.875,0 0,-20.25 -23,0 0,-11.25 -1,0 0,11.25 -3.25,0 0,12.73047 -9.21875,0 0,7.41406 -8.671875,0 0,-49.09375 22.703125,0 0,-22.30273 22.818359,0 0,-0.0606 0.04883,0.0332 c 2.09825,-3.62866 3.487695,-7.17498 5.724609,-9.62695 4.115584,-4.40856 11.364815,-9.08399 24.025391,-10.05469 16.18875,-1.24121 34.980591,6.58341 50.421871,10.57031 7.72064,1.99346 14.61943,3.04351 20.02344,1.40039 5.40401,-1.64311 9.19561,-6.07242 10.51172,-14.60937 l -0.53125,-0.082 2.05078,0 0,-1 -1.86133,0 0,-15.48047 -1.04492,0 0,15.48047 -8.41992,0 -19.76758,-19.76758 -4.14258,0 0,-17.75586 10.77149,0 0,-6.81836 21.58007,0 0,24.23828 1,0 0,-24.23828 0,-0.59961 0,-90.79883 48.10547,0 0,48.0293 22.22071,0 0,35.02148 -45.58399,0 -8.73633,8.73633 -0.5039,0 -5.69727,0 0,1 4.69727,0 0,77.91406 23.74414,0 0,-86.65039 32.08008,0 0,95.95313 -17.5625,0 0,89.74806 1,0 0,-88.74806 17.5625,0 0,-133.97461 -22.22071,0 0,-48.0293 -50.10547,0 z m 26.66602,10.51953 0,0.5 0,31.29493 9.21875,0 0,-31.79493 -9.21875,0 z m 1,1 7.21875,0 0,1.21485 -7.21875,0 0,-1.21485 z m 0,2.21485 7.21875,0 0,1.19726 -7.21875,0 0,-1.19726 z m 0,2.19726 7.21875,0 0,1.19727 -7.21875,0 0,-1.19727 z m 0,2.19727 7.21875,0 0,1.19726 -7.21875,0 0,-1.19726 z m 0,2.19726 7.21875,0 0,1.19727 -7.21875,0 0,-1.19727 z m 0,2.19727 7.21875,0 0,1.19727 -7.21875,0 0,-1.19727 z m 0,2.19727 7.21875,0 0,1.19726 -7.21875,0 0,-1.19726 z m 0,2.19726 7.21875,0 0,1.19531 -7.21875,0 0,-1.19531 z m 0,2.19531 7.21875,0 0,1.19727 -7.21875,0 0,-1.19727 z m 0,2.19727 7.21875,0 0,1.19727 -7.21875,0 0,-1.19727 z m 0,2.19727 7.21875,0 0,1.19726 -7.21875,0 0,-1.19726 z m 0,2.19726 7.21875,0 0,1.19727 -7.21875,0 0,-1.19727 z m 0,2.19727 7.21875,0 0,1.19726 -7.21875,0 0,-1.19726 z m 0,2.19726 7.21875,0 0,1.21485 -7.21875,0 0,-1.21485 z m -1.50977,44.95117 12.08985,0 0,85.65039 -21.74414,0 0,-76.91406 0.91797,0 8.73632,-8.73633 z m -181.068355,7.34766 132.332035,0 0,5.81836 -10.77149,0 0,19.75586 4.72852,0 19.76758,19.76758 9.2207,0 c -1.28993,8.25929 -4.75808,12.20052 -9.80274,13.73437 -5.05937,1.53833 -11.82095,0.56607 -19.48242,-1.41211 -15.32293,-3.95635 -34.183509,-11.86963 -50.748044,-10.59961 -12.876532,0.98726 -20.403811,5.78889 -24.679688,10.36914 -2.702996,2.56655 -4.139835,6.05999 -5.546875,9.3379 l -23.314453,0 0,22.30273 -21.703125,0 0,-89.07422 z m 77.201172,56.17969 -0.02344,0.002 -1.382812,0.0664 0.04687,0.99804 1.359375,-0.0644 1.591797,0.0742 0.04687,-0.99805 -1.615235,-0.0762 -0.02344,-0.002 z m -4.462891,0.45312 -0.820312,0.18164 -0.01172,0.004 -0.01172,0.002 -1.013672,0.27344 -0.01367,0.004 -0.0098,0.004 -1.001953,0.32227 -0.01172,0.004 -0.01172,0.004 -0.05078,0.0195 0.351563,0.93555 0.02734,-0.0117 0.01953,-0.006 0.0059,-0.002 L 72,914.1468 l 0.01172,-0.004 0.01172,-0.002 0.966796,-0.26171 0.824219,-0.17969 -0.216797,-0.97852 z m 9.152344,0.0508 -0.214844,0.97657 0.570313,0.125 0.02539,0.006 0.96875,0.26171 0.01953,0.006 0.980468,0.31836 0.248047,0.0918 0.351563,-0.93359 -0.269531,-0.10547 -0.0098,-0.002 -0.01367,-0.004 -1.001953,-0.32422 -0.01172,-0.002 -0.01172,-0.004 -1.013671,-0.27344 -0.01172,-0.004 -0.01172,-0.004 -0.59375,-0.12891 z m -14.90625,1.98047 -0.115234,0.0566 -0.01172,0.006 -0.01172,0.006 -0.935547,0.52149 -0.01172,0.006 -0.01172,0.008 -0.914063,0.57226 -0.0098,0.006 -0.01172,0.008 -0.589844,0.41015 0.572266,0.82032 0.589843,-0.41016 0.873047,-0.54492 0.0078,-0.004 0.01367,-0.008 0.892578,-0.49805 0.02344,-0.0117 0.09375,-0.0469 -0.443359,-0.89649 z m 20.660156,0.11719 -0.486328,0.87109 0.826172,0.46289 0.01367,0.006 0.0078,0.006 0.892578,0.56055 0.759766,0.5293 0.572266,-0.82031 -0.779297,-0.54297 -0.01172,-0.008 -0.0098,-0.006 -0.916015,-0.57421 -0.0098,-0.006 -0.01172,-0.008 -0.847656,-0.4707 z m -25.660156,3.42774 -0.501953,0.47851 -0.0078,0.008 -0.0098,0.01 -0.773438,0.81055 -0.0059,0.01 -0.0078,0.008 -0.722656,0.8418 -0.0078,0.0117 -0.0098,0.01 -0.04687,0.0644 0.789062,0.61133 0.03516,-0.043 0.720703,-0.83985 0.736328,-0.77539 0.0078,-0.008 0.0098,-0.0117 0.484375,-0.45898 -0.689453,-0.72656 z m 30.601562,0.16015 -0.689453,0.72461 0.316407,0.30078 0.0098,0.01 0.0098,0.008 0.734375,0.77539 0.722656,0.83984 0.173828,0.22657 0.792969,-0.61133 -0.191406,-0.24805 -0.0098,-0.01 -0.0078,-0.0117 -0.720703,-0.83985 -0.0098,-0.008 -0.0098,-0.01 -0.767578,-0.81055 -0.0098,-0.0117 -0.0098,-0.008 -0.333985,-0.31641 z m -34.443359,4.58594 -0.09766,0.15625 -0.0078,0.01 -0.0059,0.01 -0.523437,0.9375 -0.0039,0.0117 -0.0059,0.0117 -0.472656,0.95508 -0.0059,0.0117 -0.0059,0.01 -0.269531,0.62109 0.919922,0.39844 0.269531,-0.61914 0.449219,-0.91211 0.002,0 0.0098,-0.0215 0.509766,-0.91407 0.002,-0.002 0.08398,-0.13281 -0.847656,-0.53125 z m 38.251953,0.21875 -0.875,0.48828 0.488282,0.87109 0.0059,0.0117 0.0059,0.0117 0.451172,0.91211 0.361328,0.83398 0.917969,-0.40039 -0.361328,-0.83398 -0.0059,-0.01 -0.0059,-0.0117 -0.472656,-0.95508 -0.0039,-0.0117 -0.0078,-0.0117 -0.498047,-0.89453 z m -40.654297,5.41601 -0.140625,0.52735 -0.0059,0.0117 -0.002,0.0117 -0.22461,1.02343 -0.002,0.0117 -0.002,0.0117 -0.173828,1.03125 -0.002,0.0117 -0.002,0.0117 -0.04297,0.35742 0.994141,0.12109 0.03906,-0.33593 0,-0.004 0.002,-0.0195 0.167969,-0.98438 0.002,-0.004 0.002,-0.0195 0.212891,-0.97657 0.002,-0.0137 0.0039,-0.01 0.136719,-0.50391 -0.964844,-0.25977 z m 42.984375,0.22657 -0.966796,0.25976 0.07617,0.27735 0.0039,0.0215 0,0.004 0.214843,0.97461 0.002,0.0195 0.002,0.004 0.167968,0.98633 0.002,0.0176 0,0.004 0.06836,0.56836 0.992181,-0.1211 -0.0703,-0.58984 0,-0.0117 -0.004,-0.0117 -0.17383,-1.0293 -0.002,-0.0137 -0.0039,-0.0117 -0.222656,-1.02343 -0.002,-0.0117 -0.0039,-0.0117 -0.08008,-0.30078 z m -42.755859,5.8125 -1,0.0488 0.08984,1.85352 0.002,0.0176 0,0.0195 0.125,1.03516 0.002,0.0117 0.002,0.0137 0.01563,0.0957 0.986328,-0.16602 -0.01172,-0.0723 -0.0039,-0.0254 -0.11914,-0.99805 -0.002,-0.0156 -0.08594,-1.81836 z m 42.453125,0.23242 -0.07422,1.58594 0,0.0156 -0.121093,0.99805 -0.0039,0.0234 -0.04883,0.30468 0.984373,0.16602 0.0547,-0.32813 0.002,-0.0117 0.002,-0.0117 0.125,-1.03516 0,-0.0195 0.002,-0.0176 0.0762,-1.62109 -0.998046,-0.0488 z m -41.597656,5.57812 -0.964844,0.25977 0.01172,0.0449 0.0039,0.0117 0.002,0.0117 0.324219,1.00195 0.0059,0.0117 0.002,0.0117 0.373047,0.98828 0.0059,0.01 0.0039,0.0137 0.335937,0.77344 0.917969,-0.39844 -0.328125,-0.75196 -0.0078,-0.0234 -0.355469,-0.94141 -0.0078,-0.0195 -0.002,-0.004 -0.314453,-0.97851 -0.0059,-0.0215 z m 40.691406,0.19922 -0.257812,0.80078 -0.002,0.004 -0.0078,0.0195 -0.355469,0.94141 -0.0078,0.0156 -0.002,0.008 -0.402344,0.92969 -0.0059,0.0137 -0.0039,0.008 0.171875,0.0742 0.728516,0.35937 0.0039,-0.0137 0.0059,-0.01 0.0059,-0.0117 0.423828,-0.97265 0.0039,-0.0137 0.0039,-0.01 0.375,-0.99023 0.002,-0.0117 0.0059,-0.0117 0.263672,-0.82227 -0.949219,-0.30664 z m 73.81055,4.60938 23.36914,0 -0.48828,88.24604 -12.84571,0 -0.61132,0 -22.25196,0 0,6.4532 -3.66015,0 0,-61.79885 0.42773,0 0,-1.35938 16.06055,0 0,-31.54101 z m -112.0918,0.50586 -0.849609,0.52929 0.232421,0.36914 0.0059,0.01 0.0078,0.0117 0.623047,0.89062 0.0059,0.0117 0.0078,0.01 0.671875,0.86719 0.0059,0.0117 0.0098,0.008 0.246094,0.28711 0.759765,-0.65039 -0.232421,-0.26758 0,-0.002 -0.654297,-0.8457 -0.0098,-0.01 -0.0059,-0.0117 -0.607422,-0.8711 -0.216797,-0.34765 z m 35.810547,0.19531 -0.09375,0.15234 -0.607422,0.8711 -0.0059,0.01 -0.0078,0.0117 -0.65625,0.84375 0,0.002 -0.384765,0.44532 0.759765,0.65039 0.398438,-0.46289 0.0098,-0.01 0.0059,-0.01 0.671875,-0.86719 0.0078,-0.0117 0.0078,-0.01 0.621093,-0.89257 0.0078,-0.0117 0.0078,-0.01 0.105469,-0.17187 -0.847656,-0.5293 z m -2.814453,3.48633 -0.810547,0.77148 -0.800781,0.6875 -0.613282,0.47461 0.613282,0.79102 0.611328,-0.47461 0.01172,-0.008 0.0078,-0.008 0.839844,-0.72265 0.0098,-0.006 0.0098,-0.008 0.810547,-0.77343 -0.689453,-0.72461 z m -29.240235,0.77539 -0.652343,0.75976 0.814453,0.69922 0.0098,0.008 0.0098,0.008 0.867188,0.67187 0.0098,0.008 0.0098,0.006 0.683593,0.47461 0.570313,-0.82031 -0.660156,-0.45898 -0.0098,-0.008 -0.01172,-0.008 -0.845703,-0.65429 0,-0.002 -0.794922,-0.68359 z m 24.570313,2.7539 -0.470703,0.26563 -0.955078,0.47266 -0.929688,0.40234 -0.02148,0.008 -0.265625,0.10156 0.353515,0.93555 0.289063,-0.10937 0.0098,-0.006 0.01367,-0.004 0.970703,-0.42187 0.01172,-0.006 0.01172,-0.006 0.955078,-0.47266 0.01172,-0.006 0.0098,-0.006 0.494141,-0.27539 -0.488281,-0.87305 z m -19.720703,0.52735 -0.44336,0.89648 0.429688,0.21094 0.0098,0.006 0.01172,0.006 0.972657,0.42187 0.01172,0.004 0.01172,0.006 0.988281,0.37305 0.01172,0.004 0.0098,0.004 0.386718,0.125 0.306641,-0.95313 -0.361328,-0.11718 -0.966797,-0.36524 -0.02148,-0.008 -0.927735,-0.40234 -0.429687,-0.21094 z m -46.574219,0.65625 0,3.75 1,0 0,-3.75 -1,0 z m 60.861328,0.93945 -0.857422,0.18555 -1.007812,0.17187 -0.01953,0.004 -0.002,0 -0.990234,0.11719 -0.02344,0.004 0.04102,0.35157 0.03125,0.64453 0.0098,0 0.01758,0 0.01953,-0.002 1.03711,-0.125 0.01172,-0.002 0.01172,-0.002 1.03125,-0.17383 0.0098,-0.002 0.01367,-0.002 0.878907,-0.19336 -0.212891,-0.97656 z m -8.74414,0.23047 -0.167969,0.98633 0.78125,0.13086 0.01172,0.002 0.01367,0 1.035157,0.125 0.01953,0.004 0.01563,0 1.164062,0.0547 0.04687,-0.99804 -1.126953,-0.0527 -0.01367,-0.002 -1,-0.11914 -0.779296,-0.13086 z m -8.626954,20.08789 0,19.88867 -1.357422,0 0,1 13.771485,0 0,-3.13476 10.896484,0 0,1.14843 1,0 0,-1.14843 11.226559,0 0,3.13476 10.51172,0 3.15235,0 0,-1 -2.15235,0 0,-19.88867 -47.048826,0 z M 19.75,976.11133 l 25.25,0 0,19.25 -22.25,0 -3,0 0,-19.25 z m 114.25,0 20.69727,0 0,19 -20.69727,0 0,-19 z m -67.384766,0.38281 45.048826,0 0,18.88867 -9.51758,0 0,-3.09375 -25.072261,0 0,0.25 0,0.75 0,2.09375 -10.458985,0 0,-18.88867 z m -56.083984,12.3457 7.21875,0 0,1.19532 -7.21875,0 0,-1.19532 z m 0,2.19532 7.21875,0 0,1.19726 -7.21875,0 0,-1.19726 z m 0,2.19726 7.21875,0 0,1.19727 -7.21875,0 0,-1.19727 z m 44.830078,2.16406 0,3 1,0 0,-3 -1,0 z m 33.564453,0 0,3 1,0 0,-3 -1,0 z m 33.435549,0 0,3 1,0 0,-3 -1,0 z m -111.83008,0.0332 7.21875,0 0,1.19726 -7.21875,0 0,-1.19726 z m -9.671875,0.82617 8.671875,0 0,1.06836 -8.671875,0 0,-1.06836 z m 18.890625,0.10547 3,0 0,15.74998 -3,0 0,-15.74998 z m -9.21875,1.26562 7.21875,0 0,1.19727 -7.21875,0 0,-1.19727 z m -9.671875,0.69727 8.671875,0 0,1.06836 -8.671875,0 0,-1.06836 z m 54.501953,1.07226 0,3.00003 1,0 0,-3.00003 -1,0 z m 33.564453,0 0,3.00003 1,0 0,-3.00003 -1,0 z m 33.435549,0 0,3.00003 1,0 0,-3.00003 -1,0 z m -111.83008,0.42774 7.21875,0 0,1.19529 -7.21875,0 0,-1.19529 z m -9.671875,0.56839 8.671875,0 0,1.0683 -8.671875,0 0,-1.0683 z m 9.671875,1.6269 7.21875,0 0,1.2168 -7.21875,0 0,-1.2168 z m -9.671875,0.4414 8.671875,0 0,1.7754 9.21875,0 0,7.875 -17.890625,0 0,-9.6504 z m 54.501953,0.9356 0,3 1,0 0,-3 -1,0 z m 33.564453,0 0,3 1,0 0,-3 -1,0 z m 33.435549,0 0,3 1,0 0,-3 -1,0 z m -67.000002,4 0,3 1,0 0,-3 -1,0 z m 33.564453,0 0,3 1,0 0,-3 -1,0 z m 33.435549,0 0,3 1,0 0,-3 -1,0 z m -67.000002,4 0,3 1,0 0,-3 -1,0 z m 33.564453,0 0,3 1,0 0,-3 -1,0 z m 33.435549,0 0,3 1,0 0,-3 -1,0 z m -121.501955,1.7148 22.265625,0 0,25.125 -3.25,0 0,-3.375 -19.015625,0 0,-21.75 z m 54.501953,2.2852 0,3 1,0 0,-3 -1,0 z m 33.564453,0 0,3 1,0 0,-3 -1,0 z m 33.435549,0 0,3 1,0 0,-3 -1,0 z m -67.000002,4 0,3 1,0 0,-3 -1,0 z m 33.564453,0 0,3 1,0 0,-3 -1,0 z m 33.435549,0 0,3 1,0 0,-3 -1,0 z m -67.000002,4 0,3 1,0 0,-3 -1,0 z m 33.564453,0 0,3 1,0 0,-3 -1,0 z m 33.435549,0 0,3 1,0 0,-3 -1,0 z m -67.000002,4 0,3 1,0 0,-3 -1,0 z m 33.564453,0 0,3 1,0 0,-3 -1,0 z m 33.435549,0 0,3 1,0 0,-3 -1,0 z m -67.000002,4 0,3 1,0 0,-3 -1,0 z m 33.564453,0 0,3 1,0 0,-3 -1,0 z m 33.435549,0 0,3 1,0 0,-3 -1,0 z m -67.000002,4 0,3 1,0 0,-3 -1,0 z m 33.564453,0 0,2.4023 -0.113281,0 -23.8125,0 0,1 23.8125,0 1.625,0 20.3125,0 3.5,0 0,-1 -3.5,0 -20.3125,0 -0.511719,0 0,-2.4023 -1,0 z m 33.435549,0 0,3 1,0 0,-3 -1,0 z m 28.83789,8.8301 1.21484,0 0,7.2168 -1.21484,0 0,-7.2168 z m 2.21484,0 1.19727,0 0,7.2168 -1.19727,0 0,-7.2168 z m 2.19727,0 1.19726,0 0,7.2168 -1.19726,0 0,-7.2168 z m 2.19726,0 1.19727,0 0,7.2168 -1.19727,0 0,-7.2168 z m 2.19727,0 1.19726,0 0,7.2168 -1.19726,0 0,-7.2168 z m 2.19726,0 1.19727,0 0,7.2168 -1.19727,0 0,-7.2168 z m 2.19727,0 1.19531,0 0,7.2168 -1.19531,0 0,-7.2168 z m 2.19531,0 1.19727,0 0,7.2168 -1.19727,0 0,-7.2168 z m 2.19727,0 1.19726,0 0,7.2168 -1.19726,0 0,-7.2168 z m 2.19726,0 1.19727,0 0,7.2168 -1.19727,0 0,-7.2168 z m 2.19727,0 1.19727,0 0,7.2168 -1.19727,0 0,-7.2168 z m 2.19727,0 1.19726,0 0,7.2168 -1.19726,0 0,-7.2168 z m 2.19726,0 1.19727,0 0,7.2168 -1.19727,0 0,-7.2168 z m 2.19727,0 1.21484,0 0,7.2168 -1.21484,0 0,-7.2168 z"
         style="color:#000000;font-style:normal;font-variant:normal;font-weight:normal;font-stretch:normal;font-size:medium;line-height:normal;font-family:sans-serif;text-indent:0;text-align:start;text-decoration:none;text-decoration-line:none;text-decoration-style:solid;text-decoration-color:#000000;letter-spacing:normal;word-spacing:normal;text-transform:none;direction:ltr;block-progression:tb;writing-mode:lr-tb;baseline-shift:baseline;text-anchor:start;white-space:normal;clip-rule:nonzero;display:inline;overflow:visible;visibility:visible;opacity:1;isolation:auto;mix-blend-mode:normal;color-interpolation:sRGB;color-interpolation-filters:linearRGB;solid-color:#000000;solid-opacity:1;fill:#2c3e50;fill-opacity:1;fill-rule:evenodd;stroke:none;stroke-width:1px;stroke-linecap:butt;stroke-linejoin:miter;stroke-miterlimit:4;stroke-dasharray:none;stroke-dashoffset:0;stroke-opacity:1;color-rendering:auto;image-rendering:auto;shape-rendering:auto;text-rendering:auto;enable-background:accumulate"
         inkscape:connector-curvature="0" />
      <text
         sodipodi:linespacing="125%"
         id="text6221"
         y="936.69464"
         x="70.009315"
         style="font-style:normal;font-weight:normal;font-size:40px;line-height:125%;font-family:Sans;letter-spacing:0px;word-spacing:0px;fill:#2c3e50;fill-opacity:1;stroke:none;stroke-width:1px;stroke-linecap:butt;stroke-linejoin:miter;stroke-opacity:1"
         xml:space="preserve"><tspan
           style="font-size:8.75px;fill:#2c3e50;fill-opacity:1"
           y="936.69464"
           x="70.009315"
           id="tspan6223"
           sodipodi:role="line">A01</tspan></text>
      <text
         xml:space="preserve"
         style="font-style:normal;font-weight:normal;font-size:40px;line-height:125%;font-family:Sans;letter-spacing:0px;word-spacing:0px;fill:#2c3e50;fill-opacity:1;stroke:none;stroke-width:1px;stroke-linecap:butt;stroke-linejoin:miter;stroke-opacity:1"
         x="113.43538"
         y="946.33362"
         id="text6225"
         sodipodi:linespacing="125%"><tspan
           sodipodi:role="line"
           id="tspan6227"
           x="113.43538"
           y="946.33362"
           style="font-size:8.75px;fill:#2c3e50;fill-opacity:1">A02</tspan></text>
      <text
         xml:space="preserve"
         style="font-style:normal;font-weight:normal;font-size:40px;line-height:125%;font-family:Sans;letter-spacing:0px;word-spacing:0px;fill:#2c3e50;fill-opacity:1;stroke:none;stroke-width:1px;stroke-linecap:butt;stroke-linejoin:miter;stroke-opacity:1"
         x="30.693048"
         y="1020.4928"
         id="text6229"
         sodipodi:linespacing="125%"><tspan
           sodipodi:role="line"
           id="tspan6231"
           x="30.693048"
           y="1020.4928"
           style="font-size:8.75px;fill:#2c3e50;fill-opacity:1">A03</tspan></text>
      <text
         sodipodi:linespacing="125%"
         id="text6233"
         y="1020.4928"
         x="64.126221"
         style="font-style:normal;font-weight:normal;font-size:40px;line-height:125%;font-family:Sans;letter-spacing:0px;word-spacing:0px;fill:#2c3e50;fill-opacity:1;stroke:none;stroke-width:1px;stroke-linecap:butt;stroke-linejoin:miter;stroke-opacity:1"
         xml:space="preserve"><tspan
           id="tspan6237"
           style="font-size:8.75px;fill:#2c3e50;fill-opacity:1"
           y="1020.4928"
           x="64.126221"
           sodipodi:role="line">A04</tspan></text>
      <text
         xml:space="preserve"
         style="font-style:normal;font-weight:normal;font-size:40px;line-height:125%;font-family:Sans;letter-spacing:0px;word-spacing:0px;fill:#2c3e50;fill-opacity:1;stroke:none;stroke-width:1px;stroke-linecap:butt;stroke-linejoin:miter;stroke-opacity:1"
         x="97.846375"
         y="1020.4928"
         id="text6241"
         sodipodi:linespacing="125%"><tspan
           sodipodi:role="line"
           x="97.846375"
           y="1020.4928"
           style="font-size:8.75px;fill:#2c3e50;fill-opacity:1"
           id="tspan6243">A05</tspan></text>
      <text
         sodipodi:linespacing="125%"
         id="text6245"
         y="1020.4928"
         x="130.7056"
         style="font-style:normal;font-weight:normal;font-size:40px;line-height:125%;font-family:Sans;letter-spacing:0px;word-spacing:0px;fill:#2c3e50;fill-opacity:1;stroke:none;stroke-width:1px;stroke-linecap:butt;stroke-linejoin:miter;stroke-opacity:1"
         xml:space="preserve"><tspan
           id="tspan6247"
           style="font-size:8.75px;fill:#2c3e50;fill-opacity:1"
           y="1020.4928"
           x="130.7056"
           sodipodi:role="line">A06</tspan></text>
      <text
         xml:space="preserve"
         style="font-style:normal;font-weight:normal;font-size:40px;line-height:125%;font-family:Sans;letter-spacing:0px;word-spacing:0px;fill:#2c3e50;fill-opacity:1;stroke:none;stroke-width:1px;stroke-linecap:butt;stroke-linejoin:miter;stroke-opacity:1"
         x="158.39917"
         y="883.17285"
         id="text6249"
         sodipodi:linespacing="125%"><tspan
           sodipodi:role="line"
           x="158.39917"
           y="883.17285"
           style="font-size:6.25px;fill:#2c3e50;fill-opacity:1"
           id="tspan6251">A07</tspan></text>
      <text
         sodipodi:linespacing="125%"
         id="text6253"
         y="830.51202"
         x="178.05731"
         style="font-style:normal;font-weight:normal;font-size:40px;line-height:125%;font-family:Sans;letter-spacing:0px;word-spacing:0px;fill:#2c3e50;fill-opacity:1;stroke:none;stroke-width:1px;stroke-linecap:butt;stroke-linejoin:miter;stroke-opacity:1"
         xml:space="preserve"><tspan
           id="tspan6255"
           style="font-size:8.75px;fill:#2c3e50;fill-opacity:1"
           y="830.51202"
           x="178.05731"
           sodipodi:role="line">A08</tspan></text>
      <text
         xml:space="preserve"
         style="font-style:normal;font-weight:normal;font-size:40px;line-height:125%;font-family:Sans;letter-spacing:0px;word-spacing:0px;fill:#2c3e50;fill-opacity:1;stroke:none;stroke-width:1px;stroke-linecap:butt;stroke-linejoin:miter;stroke-opacity:1"
         x="135.15379"
         y="877.72021"
         id="text6257"
         sodipodi:linespacing="125%"><tspan
           sodipodi:role="line"
           x="135.15379"
           y="877.72021"
           style="font-size:8.75px;fill:#2c3e50;fill-opacity:1"
           id="tspan6259">WC</tspan></text>
    </g>
    <path
       sodipodi:type="star"
       style="opacity:1;fill:#2c3e50;fill-opacity:1;stroke:none;stroke-width:1;stroke-miterlimit:4;stroke-dasharray:none;stroke-dashoffset:0;stroke-opacity:1"
       id="path6282"
       sodipodi:sides="3"
       sodipodi:cx="717.69269"
       sodipodi:cy="1006.2143"
       sodipodi:r1="19.439234"
       sodipodi:r2="9.7196169"
       sodipodi:arg1="-1.5707963"
       sodipodi:arg2="-0.52359878"
       inkscape:flatsided="false"
       inkscape:rounded="0"
       inkscape:randomized="0"
       d="m 717.69269,986.77506 8.41743,14.57944 8.41744,14.5794 -16.83487,0 -16.83487,0 8.41743,-14.5794 z"
       inkscape:transform-center-y="-4.8597661"
       inkscape:transform-center-x="-2.2924135e-05"
       transform="matrix(0.99972171,0,0,1,-3.9134128e-5,0)" />
  </g>
</svg>
