<?xml version="1.0" encoding="UTF-8" standalone="no"?>
<!-- Created with Inkscape (http://www.inkscape.org/) -->

<svg
   xmlns:dc="http://purl.org/dc/elements/1.1/"
   xmlns:cc="http://creativecommons.org/ns#"
   xmlns:rdf="http://www.w3.org/1999/02/22-rdf-syntax-ns#"
   xmlns:svg="http://www.w3.org/2000/svg"
   xmlns="http://www.w3.org/2000/svg"
   xmlns:sodipodi="http://sodipodi.sourceforge.net/DTD/sodipodi-0.dtd"
   xmlns:inkscape="http://www.inkscape.org/namespaces/inkscape"
   width="236.42885mm"
   height="288.99554mm"
   viewBox="0 0 837.74001 1024"
   id="svg6456"
   version="1.1"
   inkscape:version="0.91 r13725"
   sodipodi:docname="level_b.svg">
  <defs
     id="defs6458" />
  <sodipodi:namedview
     id="base"
     pagecolor="#ffffff"
     bordercolor="#666666"
     borderopacity="1.0"
     inkscape:pageopacity="0.0"
     inkscape:pageshadow="2"
     inkscape:zoom="0.5"
     inkscape:cx="606.05685"
     inkscape:cy="524.1514"
     inkscape:document-units="px"
     inkscape:current-layer="layer1"
     showgrid="false"
     inkscape:window-width="1354"
     inkscape:window-height="998"
     inkscape:window-x="304"
     inkscape:window-y="31"
     inkscape:window-maximized="0"
     inkscape:snap-to-guides="false"
     fit-margin-top="0"
     fit-margin-left="0"
     fit-margin-right="0"
     fit-margin-bottom="0" />
  <metadata
     id="metadata6461">
    <rdf:RDF>
      <cc:Work
         rdf:about="">
        <dc:format>image/svg+xml</dc:format>
        <dc:type
           rdf:resource="http://purl.org/dc/dcmitype/StillImage" />
        <dc:title></dc:title>
      </cc:Work>
    </rdf:RDF>
  </metadata>
  <g
     inkscape:label="Layer 1"
     inkscape:groupmode="layer"
     id="layer1"
     transform="translate(-5.95e-4,-28.3613)">
    <path
       style="color:#000000;font-style:normal;font-variant:normal;font-weight:normal;font-stretch:normal;font-size:medium;line-height:normal;font-family:sans-serif;text-indent:0;text-align:start;text-decoration:none;text-decoration-line:none;text-decoration-style:solid;text-decoration-color:#000000;letter-spacing:normal;word-spacing:normal;text-transform:none;direction:ltr;block-progression:tb;writing-mode:lr-tb;baseline-shift:baseline;text-anchor:start;white-space:normal;clip-rule:nonzero;display:inline;overflow:visible;visibility:visible;opacity:1;isolation:auto;mix-blend-mode:normal;color-interpolation:sRGB;color-interpolation-filters:linearRGB;solid-color:#000000;solid-opacity:1;fill:#2c3e50;fill-opacity:1;fill-rule:nonzero;stroke:none;stroke-width:1;stroke-linecap:butt;stroke-linejoin:miter;stroke-miterlimit:4;stroke-dasharray:none;stroke-dashoffset:0;stroke-opacity:1;color-rendering:auto;image-rendering:auto;shape-rendering:auto;text-rendering:auto;enable-background:accumulate"
       d="m 669.87938,28.3613 0,27.792759 3.67128,0 0,-24.12148 108.60393,0 0,17.746927 -13.63109,0 0,6.374553 3.67128,0 0,-2.703273 13.63109,0 0,-25.089486 -115.94649,0 z m 0,49.533597 0,308.064793 -1.6994,0 0,-1.7711 -170.72164,0 0,5.78656 164.91357,0 0,21.51142 5.80807,0 0,-21.85561 5.37068,0 0,-163.55119 46.83752,0 0,-3.67128 -46.83752,0 0,-25.85671 28.55282,0 0,-109.894567 -3.67128,0 0,5.894128 -24.88154,0 0,-14.656444 -3.67128,0 z m 98.64412,0 0,17.8473 3.67128,0 0,-17.8473 -3.67128,0 z m -94.97284,18.327724 24.88154,0 0,3.054614 -24.88154,0 0,-3.054614 z m 0,6.725889 24.88154,0 0,3.04746 -24.88154,0 0,-3.04746 z m 0,6.71874 24.88154,0 0,3.04745 -24.88154,0 0,-3.04745 z m 0,6.71873 24.88154,0 0,3.04742 -24.88154,0 0,-3.04742 z m 94.97284,1.42692 0,19.74744 0,5.44958 0,39.33717 3.67128,0 0,-39.33717 61.87397,0 0,80.0511 -62.84914,0 0,-25.74917 -3.67128,0 0,25.74917 -18.28469,0 0,3.67128 21.95597,0 62.84914,0 0,762.9878 -165.88877,0 0,-60.34665 -5.80807,0 0,21.54747 -0.50194,0 -0.007,0 -2.94704,0 -0.007,0 -6.33868,0 0,-71.92697 -1.78546,0 -2.34473,0 -24.02107,0 0,-1.96487 0,-5.31344 0,-6.33149 -31.9731,0 0,6.33149 0,5.63615 0,1.64216 -0.007,0 0,72.45012 -4.13019,0 -6.90516,-3.958 -6.34584,-3.64962 -1.4771,2.53832 4.5102,2.5956 0,23.49068 0,1.69906 0,15.33053 -48.0493,0 0,19.04476 -29.93671,0 0,-12.51943 -56.67537,0 0,3.67128 53.00409,0 0,46.90205 -88.00313,0 0,-47.38959 14.2262,0 0,-3.67128 -17.89748,0 0,51.06087 -73.06707,0 0,-49.60558 -18.54999,0 0,3.67128 14.87872,0 0,45.9343 -78.5955,0 0,-33.1634 -3.67128,0 0,33.1634 -51.59151,0 0,-34.9491 -10.13904,0 0,-11.3578 21.56877,0 0,-3.67131 -25.24005,0 0,14.94321 -15.4667,0 -13.63822,0 -0.83895,0 0,-18.7294 -85.242513,0 0,48.5299 17.309509,0 0,5.2202 -76.6666377,0 0,-91.6388 67.9545187,0 0.0072,0 8.324912,-4.78258 0,10.78438 2.947061,0 0,-12.47684 4.424182,-2.53832 -1.477118,-2.5453 -5.894125,3.38455 -9.09215,5.21983 -4.73251,0 0,-16.24101 0,-50.10011 0,-18.3564 -0.975184,0 -34.604675,0 0,27.0041 -26.8820817,0 0,-181.31964 13.2295127,-0.29399 -0.0717,-2.93989 -13.1578077,0.29396 0,-320.05379 144.7143767,0 0,-5.79372 -150.522455,0 0,2.89686 0,665.28301 668.179985,0 0,-58.96992 169.56005,0 0,-854.05274 -65.54525,0 0,-1.7783 0,-19.74744 -3.67128,0 z m -94.97284,5.29178 24.88154,0 0,3.04746 -24.88154,0 0,-3.04746 z m 0,6.71874 24.88154,0 0,3.04745 -24.88154,0 0,-3.04745 z m 0,6.71873 24.88154,0 0,3.04746 -24.88154,0 0,-3.04746 z m 0,6.71874 24.88154,0 0,3.05461 -24.88154,0 0,-3.05461 z m 0,6.72589 24.88154,0 0,3.04746 -24.88154,0 0,-3.04746 z m 0,6.71873 24.88154,0 0,3.04746 -24.88154,0 0,-3.04746 z m 0,6.71874 24.88154,0 0,3.04742 -24.88154,0 0,-3.04742 z m 0,6.7187 24.88154,0 0,3.04745 -24.88154,0 0,-3.04745 z m 0,6.71873 24.88154,0 0,3.04746 -24.88154,0 0,-3.04746 z m 0,6.71874 24.88154,0 0,3.04745 -24.88154,0 0,-3.04745 z m 0,6.71873 24.88154,0 0,2.58135 -24.88154,0 0,-2.58135 z m -455.10954,193.88944 0,5.78656 211.09855,0 0,-5.78656 -211.09855,0 z m 443.93079,54.87556 0,134.01605 5.80807,0 0,-104.60279 13.67409,0 0,-3.67128 -13.67409,0 0,-25.74198 -5.80807,0 z m -333.71354,5.75073 -0.0932,3.67128 12.51247,0.31551 2.07226,0.15775 0.27965,-3.65696 -2.17265,-0.16491 -0.043,-0.007 -0.043,0 -12.51247,-0.31551 z m -14.86438,0.34418 -13.0144,0.98952 -0.043,0 -0.0502,0.007 -1.62053,0.20798 0.46608,3.64257 1.62053,-0.20794 12.92118,-0.98236 -0.27965,-3.65693 z m 44.34934,1.44127 -0.46608,3.64261 9.4937,1.20462 0.0502,0.007 0.043,0.007 4.85442,0.86763 0.64534,-3.61393 -4.94764,-0.88196 -0.043,-0.007 -0.0502,-0.007 -9.57975,-1.21898 z m -73.71241,1.78546 -9.80202,1.74958 -0.0502,0.007 -0.043,0.007 -4.60344,1.06842 0.8246,3.5709 4.5174,-1.03974 9.80203,-1.74959 -0.64535,-3.61389 z m 102.81018,3.25539 -0.8246,3.57803 6.20244,1.43411 7.91619,2.25153 1.00388,-3.53504 -8.00941,-2.27304 -0.043,-0.0143 -0.043,-0.007 -6.20244,-1.43408 z m -131.62828,3.21237 -6.23114,1.76391 -0.043,0.0143 -0.043,0.0144 -7.77279,2.63153 1.17596,3.47769 7.68674,-2.6029 0.007,0 0.0789,-0.0287 6.14509,-1.74242 -1.00386,-3.52785 z m 159.98745,5.03366 -1.17595,3.47765 2.58138,0.87483 11.04251,4.35245 1.34806,-3.41311 -11.12856,-4.38836 -0.043,-0.0143 -0.043,-0.0143 -2.58138,-0.87479 z m -187.90208,4.59626 -2.51683,0.98952 -0.043,0.0144 -0.043,0.0215 -10.91345,4.93329 1.51297,3.34861 10.83457,-4.90461 0.0789,-0.0358 2.43796,-0.95369 -1.34805,-3.41315 z m 468.84099,0.32266 0,3.67128 14.68512,0 0,-3.67128 -14.68512,0 z m 29.37024,0 0,3.67128 14.68511,0 0,-3.67128 -14.68511,0 z m 29.37023,0 0,3.67128 14.68512,0 0,-3.67128 -14.68512,0 z m 29.37023,0 0,3.67128 14.68512,0 0,-3.67128 -14.68512,0 z m 29.37024,0 0,3.67128 14.68512,0 0,-3.67128 -14.68512,0 z m -371.08601,6.5108 -1.67788,3.26975 7.85165,4.01542 0,0.0144 c 18.17243,9.63186 35.07236,21.32708 50.36537,34.81981 l -34.62619,30.37407 c -8.67681,-8.14385 -18.0501,-15.54996 -28.0724,-22.05635 l -2.62438,2.68176 c 11.30916,7.27706 21.84738,15.6485 31.39947,25.0321 l 2.55987,-2.61722 c -0.18456,-0.18128 -0.38119,-0.35005 -0.56648,-0.53061 l 35.9886,-31.56441 -0.0574,-0.0717 1.4126,-1.3337 c -14.83578,-13.503 -31.24971,-25.28825 -48.88826,-35.14247 l 0.007,-0.0215 -2.75346,-1.58467 -0.043,-0.0215 -0.0359,-0.0215 -4.06565,-2.07941 -6.17377,-3.16218 z m -241.96742,5.9228 -9.84505,5.66467 -0.0359,0.0215 -0.043,0.0215 -2.80365,1.79977 0.0717,0.10757 c -12.60663,7.87273 -24.56181,16.68905 -35.61571,26.52356 l 2.67458,2.51685 c 0.0458,-0.0406 0.0976,-0.0742 0.14341,-0.11473 l 34.64053,34.6405 0.0287,-0.0287 1.262,1.28351 c 10.31762,-10.17157 21.78984,-19.16227 34.15294,-26.85338 l -2.61722,-2.6746 c -0.36973,0.23228 -0.72175,0.48967 -1.08991,0.72423 l -25.14683,-36.97096 6.05187,-3.47765 -1.82846,-3.1837 z m -7.34973,8.5974 25.21853,37.07129 c -9.72996,6.44582 -18.87434,13.68925 -27.30514,21.69785 l -33.20643,-33.21358 c 11.00166,-9.46673 22.80675,-18.01071 35.29304,-25.55556 z m 135.04141,8.99893 -0.0932,3.67128 12.51247,0.31551 2.07226,0.15775 0.27965,-3.65696 -2.17265,-0.16491 -0.043,-0.007 -0.043,0 -12.51247,-0.31551 z m -14.86438,0.34418 -13.0144,0.98952 -0.043,0 -0.0502,0.007 -1.62053,0.20798 0.46608,3.64257 1.62053,-0.20794 12.92118,-0.98236 -0.27965,-3.65693 z m 44.34934,1.44127 -0.46608,3.64261 9.4937,1.20462 0.0502,0.007 0.043,0.007 4.85442,0.86763 0.64534,-3.61394 -4.94764,-0.88195 -0.043,-0.007 -0.0502,-0.007 -9.57975,-1.21898 z m -73.71241,1.78546 -9.80202,1.74958 -0.0502,0.007 -0.043,0.007 -4.60344,1.06842 0.8246,3.5709 4.5174,-1.03974 9.80203,-1.74959 -0.64535,-3.61389 z m 102.81018,3.25539 -0.8246,3.57803 6.20244,1.43411 7.91619,2.25153 1.00388,-3.53504 -8.00941,-2.27304 -0.043,-0.0144 -0.043,-0.007 -6.20244,-1.43408 z m -131.62828,3.21237 -6.23114,1.76391 -0.043,0.0143 -0.043,0.0144 -7.77279,2.63153 1.17596,3.47769 7.68674,-2.6029 0.007,0 0.0789,-0.0287 6.14509,-1.74242 -1.00386,-3.52785 z m 159.98745,5.03366 -1.17595,3.47765 2.58138,0.87483 11.04251,4.35245 1.34806,-3.41311 -11.12856,-4.38836 -0.043,-0.0143 -0.043,-0.0143 -2.58138,-0.87479 z m -288.66149,27.83575 c -11.12486,13.08763 -20.96585,27.28994 -29.391745,42.39182 l -0.03585,-0.0215 -1.426923,2.48098 -0.02151,0.0358 -0.02151,0.043 -5.392192,10.5191 3.269734,1.67788 3.929417,-7.67958 c 2.302179,-4.35939 4.726879,-8.64014 7.263679,-12.84948 l 45.10224,26.03598 c -0.0277,0.0556 -0.0584,0.10926 -0.0861,0.16491 l 3.14067,1.9145 c 4.67468,-9.46371 10.11464,-18.47461 16.19808,-26.99679 l -1.10425,-1.12576 0.44457,-0.51629 -39.25114,-33.52194 c 0.0143,-0.0168 0.0288,-0.0334 0.043,-0.0502 l -2.66024,-2.50249 z m 403.40332,2.25868 -0.9465,0.88915 -0.0287,-0.0358 -38.47673,32.74752 c -0.24513,-0.34448 -0.46978,-0.70408 -0.71707,-1.0469 l -2.61003,2.66024 c 7.82335,10.92114 14.52432,22.69372 19.99842,35.12813 l 2.33041,-1.38389 0.0789,0.15056 46.53633,-23.7414 c 0.0199,0.0369 0.0447,0.0707 0.0645,0.10754 l 3.52072,-1.18311 c -8.43586,-15.78536 -18.40023,-30.62996 -29.75028,-44.292 z m -403.12367,3.12635 37.82421,32.29577 c -4.8165,6.92656 -9.20625,14.17036 -13.12912,21.69784 l -44.86561,-25.89973 c 6.10786,-9.81983 12.84564,-19.20704 20.17052,-28.09388 z m 402.63608,2.13679 c 9.29477,11.52903 17.5967,23.87767 24.83848,36.90638 l -45.41772,23.17495 c -4.65618,-10.04377 -10.11408,-19.63209 -16.30566,-28.68902 l 36.8849,-31.39231 z m 35.67309,49.72719 -3.34145,1.51297 4.76837,10.54057 0.0215,0.0502 0.0143,0.0359 1.07557,2.72478 3.41315,-1.34805 -1.1114,-2.81081 -0.0144,-0.043 -0.0215,-0.0359 -4.8042,-10.62663 z m 96.84431,5.67183 0,137.26425 5.80807,0 0,-59.72999 13.67409,0 0,-3.67128 -13.67409,0 0,-44.2848 13.67409,0 0,-3.67128 -13.67409,0 0,-25.9069 -5.80807,0 z m -577.8321,6.08056 -4.26643,10.83457 -0.02151,0.0359 -0.01434,0.043 -0.975184,2.88251 3.477675,1.17598 0.946503,-2.79649 0.01434,-0.0359 0.01434,-0.043 4.244917,-10.75568 -3.420311,-1.34089 z m 61.00633,0 -4.26642,10.83457 -0.0215,0.0359 -0.0143,0.043 -0.97518,2.88251 3.47768,1.17598 0.9465,-2.79649 0.0143,-0.0359 0.0143,-0.043 4.24492,-10.75568 -3.42032,-1.34089 z m 369.14283,10.0817 -3.47769,1.17594 2.52401,7.47161 1.82848,6.45345 3.53503,-1.00388 -1.85715,-6.53946 -0.0143,-0.043 -0.0144,-0.043 -2.52401,-7.4716 z m 61.98151,5.51407 -3.47765,1.17595 2.524,7.47164 1.82845,6.45341 3.53503,-1.00387 -1.85715,-6.53947 -0.0143,-0.043 -0.0144,-0.043 -2.52401,-7.47161 z m 119.8687,4.23057 0,3.67128 14.68512,0 0,-3.67128 -14.68512,0 z m 29.37024,0 0,3.67128 14.68511,0 0,-3.67128 -14.68511,0 z m 29.37023,0 0,3.67128 14.68512,0 0,-3.67128 -14.68512,0 z m 29.37023,0 0,3.67128 14.68512,0 0,-3.67128 -14.68512,0 z m 29.37024,0 0,3.67128 14.68512,0 0,-3.67128 -14.68512,0 z M 74.759291,634.61 l -2.186992,7.70105 -0.0072,0.0502 -0.01434,0.043 -1.498627,6.50363 3.578061,0.82461 1.477118,-6.41758 0.0072,-0.0287 0.01434,-0.0574 2.165482,-7.61504 -3.535042,-1.00383 z m 61.006339,0 -2.18699,7.70105 -0.007,0.0502 -0.0143,0.043 -1.49862,6.50363 3.57806,0.82461 1.47711,-6.41758 0.007,-0.0287 0.0144,-0.0574 2.16548,-7.61504 -3.53504,-1.00383 z m 386.95427,10.63378 -3.57807,0.83177 0.98952,4.2951 1.79261,10.02432 3.61394,-0.64534 -1.80697,-10.11753 -0.007,-0.043 -0.0143,-0.043 -0.98952,-4.30226 z m 61.98151,5.51408 -3.57807,0.8318 0.98952,4.2951 1.79265,10.02432 3.6139,-0.64533 -1.80697,-10.11754 -0.007,-0.043 -0.0144,-0.043 -0.98952,-4.3023 z m -516.560459,12.63438 -0.824602,4.63212 -0.01434,0.0502 0,0.043 -1.262002,9.89523 3.642599,0.46607 1.247659,-9.80918 0.01434,-0.0645 0,-0.0215 0.810263,-4.54608 -3.613916,-0.64533 z m 61.006329,0 -0.8246,4.63212 -0.0143,0.0502 0,0.043 -1.262,9.89523 3.6426,0.46607 1.24766,-9.80918 0.0143,-0.0645 0,-0.0215 0.81026,-4.54608 -3.61392,-0.64533 z m 398.39117,10.99232 -3.64261,0.46607 0.16492,1.30503 0.99671,13.10045 0.007,0.043 0,0.0502 0.9465,-0.0717 2.71762,-0.0717 0,-0.043 0,-0.0502 0,-0.043 -1.01103,-13.28688 -0.007,-0.043 -0.007,-0.043 -0.16491,-1.31219 z m 169.00073,0.1434 0,3.67128 14.68512,0 0,-3.67128 -14.68512,0 z m 29.37024,0 0,3.67128 14.68511,0 0,-3.67128 -14.68511,0 z m 29.37023,0 0,3.67128 14.68512,0 0,-3.67128 -14.68512,0 z m 29.37023,0 0,3.67128 14.68512,0 0,-3.67128 -14.68512,0 z m 29.37024,0 0,3.67128 14.68512,0 0,-3.67128 -14.68512,0 z m -224.50016,5.37068 -3.64261,0.4661 0.16495,1.305 0.96801,12.70607 -0.0215,0.007 c 0.23151,4.41993 0.37733,8.8617 0.38721,13.33706 l -60.56179,0 c 0.28067,-3.00197 0.5197,-6.01741 0.66685,-9.05631 l -3.69276,0 c -0.64442,12.8798 -2.604,25.40081 -5.61448,37.50872 l -1.36242,0 0,8.46117 -44.59312,-11.94602 c 0.47951,-3.50247 0.843,-7.04503 1.06842,-10.62662 l 0.12189,-1.95753 -14.89306,0 c 0.14622,-1.54139 0.29917,-3.08233 0.39437,-4.63932 l 0.11472,-1.92166 -13.38724,0 c 0.10951,-1.24824 0.23375,-2.491 0.30831,-3.75018 l 0.11473,-1.88582 -15.86107,0 -0.11472,1.66353 c -3.71156,56.01098 -47.44688,99.32429 -100.11408,99.38986 -52.71185,-0.002 -96.51411,-43.33229 -100.22879,-99.38986 l -0.10756,-1.66353 -15.65313,0 0.11473,1.88582 c 0.0745,1.25834 0.19889,2.50275 0.30833,3.75018 l -14.30508,0 0.11473,1.92166 c 0.0953,1.55765 0.24804,3.09727 0.39437,4.63932 l -15.35197,0 0.1219,1.95753 c 0.12512,1.98829 0.29777,3.96545 0.50193,5.92996 l -46.48614,12.46226 a 197.32276,197.32276 0 0 1 0.0861,-0.32982 c -2.65491,-9.58296 -4.58693,-19.46248 -5.77223,-29.57102 l -0.16492,0 0,-0.0789 -65.55241,0 c -0.0067,-0.76726 -0.05019,-1.52571 -0.05019,-2.29455 0,-0.19465 0.01388,-0.38625 0.01434,-0.58083 l 0.329839,-12.82797 0.136241,-1.75674 -3.66411,-0.27964 -0.143411,1.84996 0,0.043 0,0.0502 -0.179261,7.1131 c -0.05578,2.12975 -0.164921,4.24609 -0.164921,6.38891 0,0.76921 0.0436,1.52692 0.05019,2.29455 l -15.904096,0 0,3.67128 15.990143,0 c 1.40382,62.81386 24.78354,120.19001 62.784616,164.76286 a 261.55523,261.55523 0 0 1 0.33701,-0.37263 l 0,0.11454 165.60911,0 0,48.24281 -33.09887,0 0,45.09543 -73.18896,0 0,-20.19938 -21.91295,0 0,3.54205 -39.27982,0 -22.42922,-21.70497 0,-35.74468 5.25595,9.07063 6.14509,-6.11635 0,-4.15882 -5.50692,5.48526 -5.89412,-10.15329 -7.220666,-12.45519 -2.552688,1.46998 6.819114,11.76682 0,42.53508 24.59471,22.94549 43.0228,0 0,-3.67128 16.01165,0 0,20.32127 80.02959,0 0,-2.93262 -0.22229,0 0,-41.42415 33.09888,0 0,-0.27241 29.9367,0 0,50.02118 3.67128,0 0,-50.02118 75.72014,0 0,45.20263 92.47034,0 0,-15.14403 36.02443,0 0,-0.76729 1.02539,0 0,-1.64914 25.86387,-25.74889 -3.36297,-12.49116 0,-26.42329 -0.58795,0 12.34754,-12.29732 -2.08661,-2.07941 -14.08281,14.02538 0.35134,0.35135 -3.13347,0 -18.60737,-18.52822 -2.0866,2.07942 19.47499,19.38876 5.4639,0 0,23.87763 3.01874,11.21466 -25.48382,25.37624 -37.80988,0 0,15.14403 -85.12778,0 0,-94.07653 117.00767,0 a 261.55523,261.55523 0 0 1 1.16879,1.33378 c 39.29322,-46.00958 63.07144,-105.66654 63.07144,-170.90088 0,-4.5192 -0.16775,-8.99797 -0.40153,-13.45898 l 0.0573,0 0,-0.043 0,-0.0502 0,-0.043 -1.01103,-13.28688 -0.007,-0.043 -0.007,-0.043 -0.16491,-1.31219 z m -463.75714,12.83516 -0.1434,1.84996 0,0.043 0,0.0502 -0.32268,12.82796 3.66411,0.0932 0.32985,-12.82797 0.13623,-1.75674 -3.66411,-0.27964 z m 400.70006,18.65755 60.84859,0 c -0.28141,23.04326 -3.5502,45.35777 -9.4722,66.57061 l -73.04553,-13.4016 4.84007,-18.04808 10.84888,2.90405 0,-7.09875 c 2.77898,-10.01367 4.7951,-20.34476 5.98019,-30.92623 z m -308.5237,0.0789 8.51135,0 c 4.60112,56.95637 49.39639,101.0517 103.52003,101.05339 54.08086,-0.0631 98.80791,-44.14184 103.40531,-101.05339 l 8.72648,0 c -0.0517,0.69604 -0.13815,1.37981 -0.20078,2.07229 l -0.23665,0 -0.11473,1.68504 c -0.12633,1.84625 -0.29348,3.67984 -0.5019,5.49976 -8.51425,57.71615 -55.21369,101.1682 -111.07773,101.18244 -58.77796,-0.0716 -107.40965,-48.21025 -112.03138,-110.43953 z m -149.862763,2.6746 62.375893,0 c 1.4959,11.31026 3.88746,22.34095 7.19915,32.96981 a 197.32276,197.32276 0 0 1 0.67402,-2.57423 l 47.99194,-12.86379 c 3.35398,25.82991 13.47596,49.42819 28.49544,69.02291 l 2.81799,-2.58854 c -0.0176,-0.0232 -0.0326,-0.0485 -0.0502,-0.0717 l 8.43964,-7.67239 0.0215,0.0287 4.11585,-3.786 c -14.6268,-19.42162 -24.0456,-43.28346 -26.02878,-69.44606 l 9.86656,0 c 5.08392,61.64041 55.12707,109.31193 115.50906,109.31377 55.87881,-0.0632 102.83836,-40.95217 113.50849,-95.91933 0.9755,-4.37734 1.73997,-8.84507 2.26588,-13.39444 l 9.71597,0 c -0.0748,0.98661 -0.19818,1.95987 -0.29396,2.93992 l -0.294,0 -0.12192,1.71372 c -0.18804,2.67048 -0.48835,5.30393 -0.83893,7.92339 -3.80847,22.24879 -13.07236,42.4499 -26.26543,59.17067 l 3.71431,3.40599 c 0.0115,-0.0147 0.0244,-0.0283 0.0359,-0.043 l 8.59736,7.7728 c -0.0296,0.0375 -0.0564,0.0772 -0.086,0.11472 l 2.81081,2.58851 c 14.975,-18.81674 25.33858,-41.50476 29.39891,-66.41285 l 34.43259,9.22122 -5.86545,21.89144 76.57345,14.04694 c -10.1211,34.34357 -27.10304,65.74431 -49.41887,92.5778 l -117.56699,0 0,-40.84287 -0.85328,0 c 9.13642,-6.06488 17.5725,-13.11201 25.09664,-21.05251 l -2.78217,-2.55984 c -0.007,0.007 -0.0145,0.0141 -0.0215,0.0215 l -8.54718,-7.80147 c 0.014,-0.0147 0.0291,-0.0283 0.043,-0.043 l -3.75734,-3.45618 c -22.26109,23.19034 -52.90907,37.70529 -86.73397,38.46238 l 0,5.28466 c 0.0192,-4.8e-4 0.0382,4.4e-4 0.0574,0 l 0,11.48706 c -0.0192,4.5e-4 -0.0382,-4e-4 -0.0574,0 l 0,3.68564 c 27.06203,-0.5591 52.3654,-8.61146 73.8845,-22.18543 l 0,91.54526 -79.39142,0 -29.9367,0 0,-47.97041 0,-25.08937 c 8.14209,1.8867 16.52741,3.12918 25.11815,3.57087 l 0,-3.6928 c -0.0193,-9.9e-4 -0.038,-0.006 -0.0574,-0.007 l 0,-11.50857 c 0.0193,0.001 0.038,0.006 0.0574,0.007 l 0,-5.32765 c -32.87143,-2.05393 -62.42579,-17.12082 -83.7654,-40.38407 l -4.1517,3.81468 c 0.0445,0.0487 0.0917,0.0948 0.13624,0.1434 l -8.37511,7.6939 c -0.0445,-0.0487 -0.0918,-0.0946 -0.13624,-0.1434 l -2.78214,2.55272 c 18.6697,20.43232 43.09813,35.44722 70.63627,42.52086 l -0.35135,0 0,22.17816 -164.45467,0 C 92.004149,831.27257 69.461598,775.34481 68.076417,714.14481 Z m 121.302793,9.64427 11.33651,0 c 1.98628,23.64693 10.34176,45.32726 23.18929,63.5447 l -8.45398,7.6867 c -14.59436,-20.30606 -24.0221,-44.64796 -26.07182,-71.2314 z m 268.74196,0 11.1644,0 c -2.11936,27.48664 -12.12117,52.57543 -27.57763,73.27502 l -8.59736,-7.77279 c 11.34297,-15.46545 19.40201,-33.53846 22.95981,-53.28374 0.86172,-4.0068 1.54594,-8.08059 2.05078,-12.21849 z m 204.25074,41.71777 0,136.332 5.80807,0 0,-107.5354 13.67409,0 0,-3.67128 -13.67409,0 0,-25.12532 -5.80807,0 z m 34.16727,25.12532 0,3.67128 14.68512,0 0,-3.67128 -14.68512,0 z m 29.37024,0 0,3.67128 14.68511,0 0,-3.67128 -14.68511,0 z m 29.37023,0 0,3.67128 14.68512,0 0,-3.67128 -14.68512,0 z m 29.37023,0 0,3.67128 14.68512,0 0,-3.67128 -14.68512,0 z m 29.37024,0 0,3.67128 14.68512,0 0,-3.67128 -14.68512,0 z m -577.34451,12.18978 c 21.08602,21.77946 49.69876,36.08747 81.52105,38.8066 l 0,11.51577 C 283.0346,850.35272 251.46211,834.5939 228.30768,810.52309 l 8.36793,-7.7011 z m 183.42774,1.6277 8.55437,7.80147 c -23.99038,24.08469 -56.58686,39.43655 -92.6783,41.15133 l 0,-11.50142 c 32.69911,-1.72326 62.25753,-15.65386 84.12393,-37.45138 z m 175.27491,63.86748 26.10764,0 0,3.39851 -26.10764,0 0,-3.39851 z m -559.733867,1.92155 29.671395,0 0,3.2913 -29.671395,0 0,-3.2913 z m 559.733867,4.40994 26.10764,0 0,2.38046 0,1.96487 -26.10764,0 0,-1.64216 0,-2.70317 z m -559.733867,1.82132 29.671395,0 0,5.37769 -29.671395,0 0,-5.37769 z m 559.741027,5.45663 26.10048,0 0,1.42702 0.043,0 0,4.59608 -26.14351,0 0,-6.0231 z m 29.09775,0 23.95653,0 0,6.0231 -23.95653,0 0,-6.0231 z m -588.838777,2.85368 29.671395,0 0,0.87487 0,4.49585 -29.671395,0 0,-5.37072 z m 559.741027,6.09506 26.14351,0 0,4.81855 -26.14351,0 0,-4.81855 z m 29.09775,0 23.95653,0 0,4.81855 -23.95653,0 0,-4.81855 z m -588.838777,2.2013 29.671395,0 0,5.37071 -29.671395,0 0,-5.37071 z m -29.8363147,4.15882 26.8820817,0 0,5.62881 -26.8820817,0 0,-5.62881 z m 589.5773417,1.39105 26.14351,0 0,4.81856 -26.14351,0 0,-4.81856 z m 29.09775,0 23.95653,0 0,4.81856 -23.95653,0 0,-4.81856 z m -588.838777,2.75346 29.671395,0 0,5.37072 -29.671395,0 0,-5.37072 z m -29.8363147,4.41728 26.8820817,0 0,5.62881 -26.8820817,0 0,-5.62881 z m 589.5773417,0.5808 26.14351,0 0,4.81855 -26.14351,0 0,-4.81855 z m 29.09775,0 23.95653,0 0,4.81855 -23.95653,0 0,-4.81855 z m -588.838777,3.30525 29.671395,0 0,5.37072 -29.671395,0 0,-5.37072 z m 559.741027,4.44592 26.14351,0 0,4.81856 -26.14351,0 0,-4.81856 z m 29.09775,0 23.95653,0 0,4.81856 -23.95653,0 0,-4.81856 z m -618.6750917,0.22211 26.8820817,0 0,5.62881 -26.8820817,0 0,-5.62881 z m 29.8363147,3.62833 29.671395,0 0,5.37071 -29.671395,0 0,-5.37071 z m 559.741027,3.90808 26.14351,0 0,3.46311 2.95424,0 0,-3.46311 23.95653,0 0,28.99723 -53.05428,0 0,-28.99723 z m -589.5773417,1.03236 26.8820817,0 0,2.42378 1.21898,0 0,0.94645 31.406648,0 0,9.43629 0,16.24101 -59.5077097,0 0,-29.04753 z m 575.5949017,27.90025 6.11643,3.52076 8.21735,0 0,-0.52352 36.08897,0 0,16.27698 -50.42275,0 0,-19.27422 z m 80.96893,2.90399 0,92.82165 -81.33462,0 0,-73.51146 53.73548,0 0,-19.21694 27.16174,0 c 0.4374,-0.0918 0.31133,-0.0675 0.4374,-0.0933 z m -128.65969,39.43761 44.37802,0 0,53.42734 -32.51806,0 -2.95424,0 -42.51371,0 0,-34.3826 33.60799,0 0,-19.04474 z m -310.94731,3.14078 0,3.67128 22.83076,0 0,3.67858 3.67128,0 0,-3.67858 45.37472,0 0,-3.67128 -71.87676,0 z m -153.928424,0.15052 77.899954,0 0,15.05804 -61.307494,0 0,-0.057 -2.95423,0 0,0.043 0,2.9396 0,23.204 -13.63823,0 0,-41.18734 z m 16.59246,17.99804 65.817724,0 39.96818,0 0,32.0877 -105.785904,0 0,-32.0877 z"
       id="path7563"
       inkscape:connector-curvature="0" />
    <g
       id="g4214"
       style="fill:#2c3e50;fill-opacity:1"
       transform="matrix(2.943526,0,0,2.943526,0,-2045.2882)" />
    <path
       sodipodi:nodetypes="csccccccscccsccccccccccccccccccccccscccscccccsccccccccccccsccccccccccc"
       inkscape:connector-curvature="0"
       id="path4378"
       d="m 578.61725,407.12567 c 28.98578,0 55.3003,26.4986 55.30037,55.48431 -3e-5,13.83143 -3.35665,27.12311 -12.10755,36.50661 -0.0859,-0.0921 -0.17805,-0.17806 -0.26433,-0.27021 l -0.98886,1.09808 -20.84615,-18.83972 c -29.88674,30.2378 -70.88428,2.91067 -73.24767,-18.75576 -0.14391,-0.8829 -0.26507,-1.78655 -0.36346,-2.71127 4e-5,-28.98578 23.53206,-52.51207 52.5178,-52.51204 z m -0.20118,2.95502 c -5.25739,0.022 -10.31053,0.87953 -15.0568,2.4146 l 8.1234,25.68687 c 1.79603,-0.368 3.64874,-0.58068 5.55362,-0.58068 0.29517,0 0.58091,0.0367 0.87387,0.0459 z m 2.94352,0.14354 -0.51167,27.67029 c 5.59988,0.77515 10.65938,3.21839 14.67165,6.82417 l 18.55225,-19.56986 c -3.80972,-3.6534 -8.10783,-6.7651 -12.74565,-9.20999 l -11.52693,24.62327 -2.66756,-1.24758 11.56714,-24.71523 c -5.46106,-2.50455 -11.32252,-4.00735 -17.33923,-4.37507 z m -20.7714,3.2655 c -5.98573,2.34088 -11.39653,5.8004 -15.98244,10.14136 l 17.53473,18.35103 c 2.00074,-1.28671 4.1817,-2.3132 6.49067,-3.05278 z m -18.0406,12.24551 c -3.63779,3.87673 -6.68007,8.31156 -8.92829,13.20563 l 20.15048,11.41768 c 1.6201,-2.52294 3.63655,-4.75937 5.96182,-6.63444 z m 73.59392,1.51202 -18.54077,19.55261 c 1.70795,1.89603 3.15194,4.02177 4.28879,6.33549 l 23.84716,-12.09033 c -2.4736,-5.03054 -5.72646,-9.69111 -9.59518,-13.79777 z m -39.10522,13.29759 c -11.27307,0 -20.76108,7.50215 -23.76669,17.79337 -0.20412,0.97906 -0.82644,2.43406 -1.23028,3.52994 l -22.86407,0 c 11.35112,31.98829 47.76206,37.81439 68.73858,17.92447 2.64504,-4.09987 3.88373,-9.19986 3.88373,-14.4865 0,-13.69432 -11.06692,-24.76128 -24.76127,-24.76128 z m -44.54381,1.14408 c -2.01539,5.18976 -3.234,10.78002 -3.38621,16.64929 l 21.15659,0 c 0.49294,-1.89445 1.19812,-3.70024 2.05819,-5.41561 z m 94.49178,2.02365 -23.93916,12.13057 c 0.63796,1.74925 1.0994,3.58026 1.37405,5.4731 l 26.45146,-0.5059 c -0.2357,-5.90775 -1.58526,-11.68058 -3.88635,-17.09777 z m 3.95537,20.04129 -26.25027,0.50018 c 0.0147,0.35207 0.0518,0.69677 0.0518,1.05208 0,2.02999 -0.28489,3.98183 -0.7014,5.88704 l 24.2611,10.6013 c 1.76207,-5.63964 2.55239,-11.77284 2.63881,-18.0406 z m -27.67032,10.3196 c -0.56927,1.69426 -1.31348,3.29898 -2.18464,4.8292 l 0.25883,-0.28746 19.24793,17.39092 c 2.90251,-3.3786 5.11358,-7.2341 6.72068,-11.43489 z"
       style="color:#000000;font-style:normal;font-variant:normal;font-weight:normal;font-stretch:normal;font-size:medium;line-height:normal;font-family:sans-serif;text-indent:0;text-align:start;text-decoration:none;text-decoration-line:none;text-decoration-style:solid;text-decoration-color:#000000;letter-spacing:normal;word-spacing:normal;text-transform:none;direction:ltr;block-progression:tb;writing-mode:lr-tb;baseline-shift:baseline;text-anchor:start;white-space:normal;clip-rule:nonzero;display:inline;overflow:visible;visibility:visible;opacity:1;isolation:auto;mix-blend-mode:normal;color-interpolation:sRGB;color-interpolation-filters:linearRGB;solid-color:#000000;solid-opacity:1;fill:#2c3e50;fill-opacity:1;fill-rule:nonzero;stroke:none;stroke-width:1;stroke-linecap:butt;stroke-linejoin:miter;stroke-miterlimit:4;stroke-dasharray:none;stroke-dashoffset:0;stroke-opacity:1;color-rendering:auto;image-rendering:auto;shape-rendering:auto;text-rendering:auto;enable-background:accumulate" />
    <path
       style="color:#000000;font-style:normal;font-variant:normal;font-weight:normal;font-stretch:normal;font-size:medium;line-height:normal;font-family:sans-serif;text-indent:0;text-align:start;text-decoration:none;text-decoration-line:none;text-decoration-style:solid;text-decoration-color:#000000;letter-spacing:normal;word-spacing:normal;text-transform:none;direction:ltr;block-progression:tb;writing-mode:lr-tb;baseline-shift:baseline;text-anchor:start;white-space:normal;clip-rule:nonzero;display:inline;overflow:visible;visibility:visible;opacity:1;isolation:auto;mix-blend-mode:normal;color-interpolation:sRGB;color-interpolation-filters:linearRGB;solid-color:#000000;solid-opacity:1;fill:#2c3e50;fill-opacity:1;fill-rule:nonzero;stroke:none;stroke-width:1;stroke-linecap:butt;stroke-linejoin:miter;stroke-miterlimit:4;stroke-dasharray:none;stroke-dashoffset:0;stroke-opacity:1;color-rendering:auto;image-rendering:auto;shape-rendering:auto;text-rendering:auto;enable-background:accumulate"
       d="m 80.380295,407.12567 c -28.985756,0 -55.300288,26.4986 -55.300347,55.48431 3e-5,13.83143 3.35665,27.12311 12.107548,36.50661 0.08594,-0.0921 0.178094,-0.17806 0.264332,-0.27021 l 0.988848,1.09808 20.846137,-18.83972 c 29.886772,30.2378 70.884317,2.91067 73.247677,-18.75576 0.14395,-0.8829 0.26521,-1.78655 0.36349,-2.71127 -3e-5,-28.98578 -23.53205,-52.51207 -52.517803,-52.51204 z m 0.201333,2.95502 c 5.257374,0.022 10.310527,0.87953 15.056815,2.4146 l -8.123424,25.68687 c -1.796023,-0.368 -3.648709,-0.58068 -5.553611,-0.58068 -0.29517,0 -0.580906,0.0367 -0.873874,0.0459 z m -2.943522,0.14354 0.511674,27.67029 c -5.59988,0.77515 -10.659365,3.21839 -14.671655,6.82417 L 44.925877,425.14883 c 3.809716,-3.6534 8.107855,-6.7651 12.745672,-9.20999 l 11.52691,24.62327 2.667567,-1.24758 -11.567144,-24.71523 c 5.461065,-2.50455 11.322508,-4.00735 17.339224,-4.37507 z m 20.771404,3.2655 c 5.98572,2.34088 11.39654,5.8004 15.98243,10.14136 l -17.534702,18.35103 c -2.000744,-1.28671 -4.181719,-2.3132 -6.490682,-3.05278 z m 18.0406,12.24551 c 3.63779,3.87673 6.68007,8.31156 8.92831,13.20563 l -20.1505,11.41768 c -1.62008,-2.52294 -3.63654,-4.75937 -5.961812,-6.63444 z m -73.593913,1.51202 18.540768,19.55261 c -1.707952,1.89603 -3.151955,4.02177 -4.288807,6.33549 l -23.84715,-12.09033 c 2.473592,-5.03054 5.726454,-9.69111 9.595189,-13.79777 z m 39.105211,13.29759 c 11.273085,0 20.761102,7.50215 23.766672,17.79337 0.20398,0.97906 0.82646,2.43406 1.23031,3.52994 l 22.86404,0 c -11.35108,31.98829 -47.762026,37.81439 -68.738537,17.92447 -2.645054,-4.09987 -3.883747,-9.19986 -3.883747,-14.4865 0,-13.69432 11.066917,-24.76128 24.761262,-24.76128 z m 44.543822,1.14408 c 2.0154,5.18976 3.23399,10.78002 3.3862,16.64929 l -21.15659,0 c -0.49292,-1.89445 -1.1981,-3.70024 -2.05817,-5.41561 z m -94.491777,2.02365 23.939137,12.13057 c -0.637951,1.74925 -1.099375,3.58026 -1.374038,5.4731 l -26.451466,-0.5059 c 0.235777,-5.90775 1.585266,-11.68058 3.886367,-17.09777 z m -3.955363,20.04129 26.250278,0.50018 c -0.01469,0.35207 -0.0518,0.69677 -0.0518,1.05208 0,2.02999 0.284928,3.98183 0.701383,5.88704 l -24.261102,10.6013 c -1.762053,-5.63964 -2.552361,-11.77284 -2.638812,-18.0406 z m 27.670292,10.3196 c 0.569279,1.69426 1.313488,3.29898 2.184657,4.8292 l -0.258752,-0.28746 -19.247922,17.39092 c -2.902479,-3.37834 -5.113538,-7.23385 -6.720644,-11.43464 z"
       id="path4438"
       inkscape:connector-curvature="0"
       sodipodi:nodetypes="csccccccscccsccccccccccccccccccccccscccscccccsccccccccccccsccccccccccc" />
    <text
       xml:space="preserve"
       style="font-style:normal;font-weight:normal;font-size:85.60502625px;line-height:125%;font-family:Sans;letter-spacing:0px;word-spacing:0px;fill:#2c3e50;fill-opacity:1;stroke:none;stroke-width:1px;stroke-linecap:butt;stroke-linejoin:miter;stroke-opacity:1;"
       x="12.768664"
       y="1032.0277"
       id="text4713"
       sodipodi:linespacing="125%"><tspan
         sodipodi:role="line"
         x="12.768664"
         y="1032.0277"
         id="tspan4717"
         style="font-size:21.40125656px;fill:#2c3e50;fill-opacity:1;">B03</tspan></text>
    <text
       xml:space="preserve"
       style="font-style:normal;font-weight:normal;font-size:117.74103546px;line-height:125%;font-family:Sans;letter-spacing:0px;word-spacing:0px;fill:#2c3e50;fill-opacity:1;stroke:none;stroke-width:1px;stroke-linecap:butt;stroke-linejoin:miter;stroke-opacity:1;"
       x="308.81226"
       y="431.28333"
       id="text4721"
       sodipodi:linespacing="125%"><tspan
         sodipodi:role="line"
         x="308.81226"
         y="431.28333"
         style="font-size:25.75585365px;fill:#2c3e50;fill-opacity:1;"
         id="tspan6766">B02</tspan></text>
    <g
       style="font-style:normal;font-weight:normal;font-size:32.07084656px;line-height:125%;font-family:Sans;letter-spacing:0px;word-spacing:0px;fill:#2c3e50;fill-opacity:1;stroke:none;stroke-width:1px;stroke-linecap:butt;stroke-linejoin:miter;stroke-opacity:1"
       id="text4725"
       transform="matrix(3.6712792,0,0,3.6712792,0,-2811.1509)">
      <path
         d="m 87.992876,945.34175 q 0,0.38023 -0.143872,0.6714 -0.143873,0.29117 -0.387086,0.47958 -0.287745,0.22608 -0.633724,0.322 -0.342554,0.0959 -0.873512,0.0959 l -1.808683,0 0,-5.10062 1.510661,0 q 0.558363,0 0.835831,0.0411 0.277469,0.0411 0.530958,0.17127 0.280894,0.1473 0.407639,0.38024 0.126745,0.22951 0.126745,0.55151 0,0.36311 -0.184979,0.62002 -0.184979,0.25349 -0.493277,0.40764 l 0,0.0274 q 0.517256,0.10619 0.815277,0.45559 0.298022,0.34598 0.298022,0.87694 z m -1.140703,-2.29854 q 0,-0.18497 -0.06166,-0.31172 -0.06166,-0.12674 -0.198681,-0.20553 -0.161,-0.0925 -0.390511,-0.11304 -0.229511,-0.024 -0.568639,-0.024 l -0.808427,0 0,1.47298 0.876937,0 q 0.318575,0 0.50698,-0.0308 0.188404,-0.0343 0.349404,-0.13702 0.161001,-0.10277 0.226086,-0.26377 0.06851,-0.16443 0.06851,-0.38709 z m 0.435043,2.32594 q 0,-0.3083 -0.09249,-0.48985 -0.09249,-0.18155 -0.335702,-0.3083 -0.164426,-0.0856 -0.400788,-0.10961 -0.232937,-0.0274 -0.568639,-0.0274 l -1.065342,0 0,1.89775 0.897491,0 q 0.445319,0 0.729639,-0.0445 0.284319,-0.048 0.465873,-0.17128 0.19183,-0.1336 0.280894,-0.30487 0.08906,-0.17128 0.08906,-0.4419 z"
         style="font-size:7.01549816px;fill:#2c3e50;fill-opacity:1"
         id="path7784"
         inkscape:connector-curvature="0" />
      <path
         d="m 92.267945,944.35862 q 0,1.37364 -0.431617,2.01764 -0.428192,0.64058 -1.332534,0.64058 -0.918043,0 -1.34281,-0.65086 -0.421341,-0.65085 -0.421341,-2.00051 0,-1.35994 0.428192,-2.00736 0.428192,-0.65085 1.335959,-0.65085 0.918044,0 1.339385,0.66112 0.424766,0.65771 0.424766,1.99024 z m -0.900916,1.55519 q 0.119894,-0.27746 0.161001,-0.65085 0.04453,-0.37681 0.04453,-0.90434 0,-0.52068 -0.04453,-0.90434 -0.04111,-0.38366 -0.164426,-0.65085 -0.119894,-0.26377 -0.328852,-0.39737 -0.205532,-0.13359 -0.530958,-0.13359 -0.322,0 -0.534383,0.13359 -0.208958,0.1336 -0.332277,0.40422 -0.116469,0.25349 -0.161001,0.66113 -0.04111,0.40763 -0.04111,0.89406 0,0.53438 0.03768,0.89407 0.03768,0.35968 0.161,0.644 0.113043,0.26719 0.318575,0.40764 0.208958,0.14044 0.551511,0.14044 0.322001,0 0.534384,-0.13359 0.212383,-0.1336 0.328851,-0.40422 z"
         style="font-size:7.01549816px;fill:#2c3e50;fill-opacity:1"
         id="path7786"
         inkscape:connector-curvature="0" />
      <path
         d="m 96.450525,946.91064 -2.760982,0 0,-0.52068 1.061916,0 0,-3.41868 -1.061916,0 0,-0.46588 q 0.215809,0 0.462447,-0.0343 0.246639,-0.0377 0.373384,-0.10619 0.157574,-0.0856 0.246638,-0.21581 0.09249,-0.1336 0.106192,-0.35626 l 0.530958,0 0,4.59707 1.041363,0 0,0.52068 z"
         style="font-size:7.01549816px;fill:#2c3e50;fill-opacity:1"
         id="path7788"
         inkscape:connector-curvature="0" />
    </g>
    <text
       sodipodi:linespacing="125%"
       id="text4733"
       y="927.17938"
       x="146.93663"
       style="font-style:normal;font-weight:normal;font-size:117.74103546px;line-height:125%;font-family:Sans;letter-spacing:0px;word-spacing:0px;fill:#2c3e50;fill-opacity:1;stroke:none;stroke-width:1px;stroke-linecap:butt;stroke-linejoin:miter;stroke-opacity:1;"
       xml:space="preserve"><tspan
         style="font-size:22.07644463px;fill:#2c3e50;fill-opacity:1;"
         id="tspan4735"
         y="927.17938"
         x="146.93663"
         sodipodi:role="line">WC</tspan></text>
    <text
       sodipodi:linespacing="125%"
       id="text6774"
       y="1032.0277"
       x="598.89374"
       style="font-style:normal;font-weight:normal;font-size:85.60502625px;line-height:125%;font-family:Sans;letter-spacing:0px;word-spacing:0px;fill:#2c3e50;fill-opacity:1;stroke:none;stroke-width:1px;stroke-linecap:butt;stroke-linejoin:miter;stroke-opacity:1;"
       xml:space="preserve"><tspan
         style="font-size:21.40125656px;fill:#2c3e50;fill-opacity:1;"
         id="tspan6776"
         y="1032.0277"
         x="598.89374"
         sodipodi:role="line">B04</tspan></text>
    <text
       xml:space="preserve"
       style="font-style:normal;font-weight:normal;font-size:117.74103546px;line-height:125%;font-family:Sans;letter-spacing:0px;word-spacing:0px;fill:#2c3e50;fill-opacity:1;stroke:none;stroke-width:1px;stroke-linecap:butt;stroke-linejoin:miter;stroke-opacity:1;"
       x="480.36337"
       y="927.17938"
       id="text6785"
       sodipodi:linespacing="125%"><tspan
         sodipodi:role="line"
         x="480.36337"
         y="927.17938"
         id="tspan6787"
         style="font-size:22.07644463px;fill:#2c3e50;fill-opacity:1;">WC</tspan></text>
    <text
       sodipodi:linespacing="125%"
       id="text7520"
       y="364.28247"
       x="724.58466"
       style="font-style:normal;font-weight:normal;font-size:117.74103546px;line-height:125%;font-family:Sans;letter-spacing:0px;word-spacing:0px;fill:#2c3e50;fill-opacity:1;stroke:none;stroke-width:1px;stroke-linecap:butt;stroke-linejoin:miter;stroke-opacity:1;"
       xml:space="preserve"><tspan
         id="tspan7522"
         style="font-size:25.75585365px;fill:#2c3e50;fill-opacity:1;"
         y="364.28247"
         x="724.58466"
         sodipodi:role="line">B09</tspan></text>
    <text
       xml:space="preserve"
       style="font-style:normal;font-weight:normal;font-size:117.74103546px;line-height:125%;font-family:Sans;letter-spacing:0px;word-spacing:0px;fill:#2c3e50;fill-opacity:1;stroke:none;stroke-width:1px;stroke-linecap:butt;stroke-linejoin:miter;stroke-opacity:1;"
       x="724.58466"
       y="548.76422"
       id="text7524"
       sodipodi:linespacing="125%"><tspan
         sodipodi:role="line"
         x="724.58466"
         y="548.76422"
         style="font-size:25.75585365px;fill:#2c3e50;fill-opacity:1;"
         id="tspan7526">B08</tspan></text>
    <text
       sodipodi:linespacing="125%"
       id="text7528"
       y="663.03284"
       x="724.58466"
       style="font-style:normal;font-weight:normal;font-size:117.74103546px;line-height:125%;font-family:Sans;letter-spacing:0px;word-spacing:0px;fill:#2c3e50;fill-opacity:1;stroke:none;stroke-width:1px;stroke-linecap:butt;stroke-linejoin:miter;stroke-opacity:1;"
       xml:space="preserve"><tspan
         id="tspan7530"
         style="font-size:25.75585365px;fill:#2c3e50;fill-opacity:1;"
         y="663.03284"
         x="724.58466"
         sodipodi:role="line">B07</tspan></text>
    <text
       xml:space="preserve"
       style="font-style:normal;font-weight:normal;font-size:117.74103546px;line-height:125%;font-family:Sans;letter-spacing:0px;word-spacing:0px;fill:#2c3e50;fill-opacity:1;stroke:none;stroke-width:1px;stroke-linecap:butt;stroke-linejoin:miter;stroke-opacity:1;"
       x="724.58466"
       y="744.71875"
       id="text7532"
       sodipodi:linespacing="125%"><tspan
         sodipodi:role="line"
         x="724.58466"
         y="744.71875"
         style="font-size:25.75585365px;fill:#2c3e50;fill-opacity:1;"
         id="tspan7534">B06</tspan></text>
    <text
       sodipodi:linespacing="125%"
       id="text7536"
       y="896.61798"
       x="724.58466"
       style="font-style:normal;font-weight:normal;font-size:117.74103546px;line-height:125%;font-family:Sans;letter-spacing:0px;word-spacing:0px;fill:#2c3e50;fill-opacity:1;stroke:none;stroke-width:1px;stroke-linecap:butt;stroke-linejoin:miter;stroke-opacity:1;"
       xml:space="preserve"><tspan
         id="tspan7538"
         style="font-size:25.75585365px;fill:#2c3e50;fill-opacity:1;"
         y="896.61798"
         x="724.58466"
         sodipodi:role="line">B05</tspan></text>
    <text
       sodipodi:linespacing="125%"
       id="text7893"
       y="481.7634"
       x="288.16132"
       style="font-style:normal;font-weight:normal;font-size:117.74103546px;line-height:125%;font-family:Sans;letter-spacing:0px;word-spacing:0px;fill:#2c3e50;fill-opacity:1;stroke:none;stroke-width:1px;stroke-linecap:butt;stroke-linejoin:miter;stroke-opacity:1;"
       xml:space="preserve"><tspan
         id="tspan7895"
         style="font-size:25.75585365px;fill:#2c3e50;fill-opacity:1;"
         y="481.7634"
         x="288.16132"
         sodipodi:role="line">B01.02</tspan></text>
    <text
       xml:space="preserve"
       style="font-style:normal;font-weight:normal;font-size:117.74103546px;line-height:125%;font-family:Sans;letter-spacing:0px;word-spacing:0px;fill:#2c3e50;fill-opacity:1;stroke:none;stroke-width:1px;stroke-linecap:butt;stroke-linejoin:miter;stroke-opacity:1;"
       x="603.41663"
       y="-541.06793"
       id="text7907"
       sodipodi:linespacing="125%"
       transform="matrix(0,1,-1,0,0,0)"><tspan
         sodipodi:role="line"
         x="603.41663"
         y="-541.06793"
         style="font-size:25.75585365px;fill:#2c3e50;fill-opacity:1;"
         id="tspan7909">B01.03</tspan></text>
    <text
       sodipodi:linespacing="125%"
       id="text7911"
       y="114.24241"
       x="-695.26654"
       style="font-style:normal;font-weight:normal;font-size:117.74103546px;line-height:125%;font-family:Sans;letter-spacing:0px;word-spacing:0px;fill:#2c3e50;fill-opacity:1;stroke:none;stroke-width:1px;stroke-linecap:butt;stroke-linejoin:miter;stroke-opacity:1;"
       xml:space="preserve"
       transform="matrix(0,-1,1,0,0,0)"><tspan
         id="tspan7913"
         style="font-size:25.75585365px;fill:#2c3e50;fill-opacity:1;"
         y="114.24241"
         x="-695.26654"
         sodipodi:role="line">B01.01</tspan></text>
  </g>
</svg>
