<?xml version="1.0" encoding="UTF-8" standalone="no"?>
<svg
   xmlns:dc="http://purl.org/dc/elements/1.1/"
   xmlns:cc="http://creativecommons.org/ns#"
   xmlns:rdf="http://www.w3.org/1999/02/22-rdf-syntax-ns#"
   xmlns:svg="http://www.w3.org/2000/svg"
   xmlns="http://www.w3.org/2000/svg"
   xmlns:sodipodi="http://sodipodi.sourceforge.net/DTD/sodipodi-0.dtd"
   xmlns:inkscape="http://www.inkscape.org/namespaces/inkscape"
   height="50"
   viewBox="0 0 50 50"
   width="50"
   id="svg3422"
   version="1.1"
   inkscape:version="0.91 r13725"
   sodipodi:docname="location.svg"
   style="fill:#000000">
  <metadata
     id="metadata3432">
    <rdf:RDF>
      <cc:Work
         rdf:about="">
        <dc:format>image/svg+xml</dc:format>
        <dc:type
           rdf:resource="http://purl.org/dc/dcmitype/StillImage" />
        <dc:title></dc:title>
      </cc:Work>
    </rdf:RDF>
  </metadata>
  <defs
     id="defs3430" />
  <sodipodi:namedview
     pagecolor="#ffffff"
     bordercolor="#666666"
     borderopacity="1"
     objecttolerance="10"
     gridtolerance="10"
     guidetolerance="10"
     inkscape:pageopacity="0"
     inkscape:pageshadow="2"
     inkscape:window-width="1054"
     inkscape:window-height="784"
     id="namedview3428"
     showgrid="false"
     inkscape:zoom="4"
     inkscape:cx="49.930413"
     inkscape:cy="9.4940293"
     inkscape:window-x="6"
     inkscape:window-y="64"
     inkscape:window-maximized="0"
     inkscape:current-layer="svg3422"
     fit-margin-top="0"
     fit-margin-left="0"
     fit-margin-right="0"
     fit-margin-bottom="0" />
  <path
     style="opacity:1;fill:#80c342;fill-opacity:1;stroke:none;stroke-width:6;stroke-miterlimit:4;stroke-dasharray:none;stroke-opacity:1"
     d="M 24.999995,0 C 13.401883,5.0999999e-7 4,9.3998616 4,20.99548 c 0,0.591447 0.031825,1.174951 0.080007,1.753789 0.00742,0.08929 0.013457,0.179003 0.022002,0.267968 0.052141,0.54241 0.1252103,1.078402 0.2180211,1.607807 0.021243,0.121255 0.044684,0.241431 0.068007,0.361957 0.1020134,0.52691 0.2192531,1.04785 0.3600337,1.559812 0.019234,0.06999 0.042065,0.138277 0.062006,0.207975 0.1472049,0.51418 0.3113073,1.020649 0.4960472,1.517818 0.015767,0.04247 0.029971,0.08565 0.046005,0.127985 0.00223,0.0059 0.00376,0.0121 0.006,0.018 0.1866417,0.491064 0.3963431,0.971187 0.6180592,1.443826 0.048883,0.104311 0.097475,0.208594 0.1480137,0.311963 0.2211539,0.45184 0.4581023,0.894888 0.7100682,1.327841 0.065317,0.112364 0.1326932,0.222923 0.2000184,0.33396 0.2554602,0.420812 0.5205856,0.833 0.8040772,1.233851 0.3718109,0.526564 0.7628491,1.038262 1.1801114,1.527817 C 12.372501,39.138823 21.697189,49.705611 24.863985,50 c 0.0411,-0.0038 0.0929,-0.02677 0.136012,-0.03399 0.04312,0.0073 0.09491,0.03017 0.136013,0.03399 3.166796,-0.294389 12.491484,-10.861177 15.845507,-15.402151 0.417261,-0.489555 0.808301,-1.001253 1.180111,-1.527817 0.283492,-0.400851 0.548618,-0.813039 0.804077,-1.233851 0.06732,-0.111037 0.134701,-0.221596 0.200018,-0.33396 0.251967,-0.432953 0.488915,-0.876001 0.710068,-1.327841 0.05054,-0.103369 0.09913,-0.207652 0.148015,-0.311963 0.221715,-0.472639 0.431416,-0.952762 0.618058,-1.443826 0.0023,-0.0059 0.0038,-0.0121 0.006,-0.018 0.01603,-0.04234 0.03024,-0.08551 0.046,-0.127985 0.18474,-0.497169 0.348843,-1.003638 0.496048,-1.517818 0.01993,-0.06969 0.04277,-0.137981 0.06201,-0.207975 0.140782,-0.511962 0.258022,-1.032902 0.360036,-1.559812 0.02332,-0.120526 0.04676,-0.240702 0.068,-0.361957 0.09281,-0.529405 0.165881,-1.065397 0.218022,-1.607807 0.0085,-0.08896 0.01457,-0.178677 0.022,-0.267968 C 45.968163,22.170431 46,21.586927 46,20.99548 45.999991,9.3998616 36.598107,-2.0000001e-7 24.999995,0 Z m 0,3.4395873 c 9.623434,0 17.425655,7.7985447 17.425656,17.4199087 0,9.621365 -7.802222,17.421909 -17.425656,17.421909 -9.623432,0 -17.4256556,-7.800544 -17.4256556,-17.421909 0,-9.621364 7.8022236,-17.4199087 17.4256556,-17.4199087 z"
     id="path4211"
     inkscape:connector-curvature="0" />
</svg>
